<?xml version="1.0" encoding="UTF-8"?>
<svg id="Layer_1" data-name="Layer 1" xmlns="http://www.w3.org/2000/svg" viewBox="0 0 1520.66 1561.6">
  <defs>
    <style>
      .cls-1 {
        fill: #fff;
      }

      .cls-2 {
        fill: #27aae1;
      }

      .cls-3 {
        fill: none;
      }

      .cls-4 {
        fill: #262262;
      }
    </style>
  </defs>
  <ellipse class="cls-1" cx="760.33" cy="780.8" rx="760.33" ry="780.8"/>
  <g>
    <g>
      <path class="cls-4" d="m377.93,1005.47c.67.33,1.37.62,2.09.87-.72-.25-1.42-.55-2.09-.87Zm10.75-152.53h0s.83.01.83.01h.04s-.87-.01-.87-.01Zm2.36,154.15c.67-.13,1.33-.3,1.98-.5-.65.2-1.31.36-1.98.5Zm8.57-3.95c.13-.09.26-.19.38-.29.26-.21.51-.43.75-.66-.36.33-.74.64-1.13.95Zm-.6.46c.2-.14.4-.29.6-.46-.35.26-.7.52-1.06.77.16-.09.31-.2.46-.31Zm1.74-1.42h0c.24-.21.48-.44.71-.67h0c-.23.22-.47.45-.71.67Zm2.82-27.28h0s.12-.11.12-.11l-.12.11Zm155.58,397.67c-1.57,1.15-3.32,2.08-5.18,2.75,1.87-.67,3.61-1.6,5.18-2.75Zm-5.18,2.75c-.62.22-1.25.41-1.9.58.64-.16,1.28-.35,1.9-.58Zm-17.11-1.44c2.99,1.69,6.45,2.65,10.13,2.65,1.75,0,3.45-.22,5.07-.63-1.62.41-3.32.62-5.07.62-3.68,0-7.14-.96-10.13-2.64Zm27.58-6.96c.36-.54.68-1.11.97-1.69-.3.58-.62,1.14-.97,1.69Zm8.7-217.02v.67h.01v-.67h-.01Zm-8.55,38.08c3.18,1.99,6.95,3.15,10.97,3.15s7.79-1.16,10.97-3.15c-3.18,1.98-6.94,3.14-10.97,3.14s-7.79-1.16-10.97-3.14Zm108.76,358.92c-.87.31-1.76.59-2.66.84.9-.24,1.79-.52,2.66-.84Zm-21.51.84c3.01.82,6.17,1.26,9.43,1.26s6.42-.44,9.42-1.26c-3,.81-6.16,1.25-9.42,1.25s-6.42-.44-9.43-1.25Zm0,0c-.9-.25-1.78-.53-2.65-.84.87.32,1.75.6,2.65.84Zm26.74-191.08l-12.89,12.65h0s12.89-12.64,12.89-12.64l.05-.05-.05.04Zm7.59-7.45l-7.54,7.4h0s7.54-7.39,7.54-7.39l40.35-39.64h0s-40.35,39.63-40.35,39.63Zm101.85-115.81l50.96,50.94h0s-50.96-50.94-50.96-50.94Zm33.75,268.92c6.11,3.89,13.38,6.14,21.16,6.14s15.03-2.25,21.15-6.14c-6.12,3.88-13.37,6.13-21.15,6.13s-15.04-2.25-21.16-6.13Zm-1.57-1.05c-.77-.55-1.52-1.12-2.25-1.71.73.59,1.48,1.17,2.25,1.71Zm119.99-177.22c-.24-1.12-.39-2.26-.46-3.43.06,1.17.21,2.31.46,3.43Zm-.49-4.05v-.16s-.01.06-.01.09,0,.05.01.07Zm.81,5.37c.19.69.42,1.37.68,2.04-.26-.67-.48-1.35-.68-2.04Zm21.46,16.25c-2.65,0-5.19-.46-7.54-1.3,2.35.85,4.89,1.31,7.54,1.31s5.2-.46,7.55-1.31c-2.35.84-4.9,1.3-7.55,1.3Zm-16.28-153.19c2.69,1.28,5.7,2,8.88,2s6.2-.72,8.89-2c-2.69,1.27-5.71,1.99-8.89,1.99s-6.19-.72-8.88-1.99Zm-.89-.45c-.58-.31-1.14-.65-1.68-1.01.54.37,1.1.7,1.68,1.01Zm80.93,3.84c.47.87,1.01,1.7,1.59,2.49-.58-.79-1.11-1.62-1.59-2.49Zm-20-195.07h0s35.14,35.03,35.14,35.03l-35.14-35.03Zm35.57,162.43h0s.01.01.02.01c.02,0,.03-.01.05-.01h-.07Zm-.43-127.35l.58.58h0s-.58-.58-.58-.58Zm92.92-110.08l-75.76-.05h0s75.76.06,75.76.06l43.86,43.26h0s-43.86-43.27-43.86-43.27Zm48.97,75.6c1.45.8,3.02,1.43,4.66,1.86-1.64-.44-3.21-1.07-4.66-1.86Zm7.44,2.39c.71.09,1.45.14,2.19.15.06,0,.12,0,.17-.01-.8-.01-1.58-.05-2.36-.14Zm52.68-185.89h0s.28.01.28.01h0s-.28-.01-.28-.01Zm19.13,17.05c.15.03.3.04.46.06.15.03.31.05.47.06h.06c.15.01.3.03.45.03.15.01.3.02.45.02-.64-.03-1.27-.09-1.89-.17Zm5.4,0c.21-.02.42-.05.62-.08-.03.01-.06.02-.09.01-.17.03-.35.06-.53.07Zm-.12.02s.08-.01.12-.02c-.05.01-.1.02-.15.02h.03Zm2.57-.46c3.95-.95,7.49-2.95,10.31-5.69-2.82,2.73-6.36,4.73-10.31,5.69Zm37.61-130.8c.23-1.97.59-3.9,1.1-5.78-.51,1.88-.88,3.81-1.1,5.78Zm-.25,4.51c0-1.53.09-3.03.25-4.51-.17,1.48-.26,2.98-.26,4.51h.01Zm.34,7.78h0s.42,0,.42,0h0s-.42,0-.42,0Zm4.34,55.6h.01s.36.01.36.01h0s-.37-.01-.37-.01Zm2.52-86.14c.91-1.28,1.89-2.51,2.94-3.68-1.05,1.17-2.04,2.4-2.94,3.68Zm22.78,136.03c.27.58.56,1.15.89,1.7-.32-.55-.62-1.12-.89-1.7Zm4.42,6.21c.68.67,1.42,1.29,2.2,1.85-.78-.57-1.51-1.19-2.2-1.85Zm2.2,1.85c.77.57,1.59,1.08,2.44,1.53-.85-.46-1.67-.97-2.44-1.53Zm-.06-81.88c-.39-.03-.77-.06-1.16-.11h-.06c.23.02.46.06.69.08.07.01.13.02.2.01.19.02.38.03.57.04.06,0,.13,0,.2.02.25.01.5.02.76.03-.4-.02-.8-.04-1.2-.07Zm-2.62-.29c-.7-.09-1.4-.21-2.09-.35.93.19,1.87.33,2.81.45-.03,0-.06,0-.09-.01-.21-.02-.42-.05-.63-.09Zm1.38.18h.02c-.23-.02-.45-.05-.68-.08.22.03.44.05.66.08Zm-4.46-.74c.33.08.66.15.99.21-.23-.04-.47-.09-.7-.15-.1-.01-.19-.03-.29-.06Zm-2.42-.62c.3.09.61.17.92.26-.01-.01-.02-.01-.04-.02-.29-.07-.59-.15-.88-.24Zm10.62,84.88c.56.31,1.15.58,1.74.83-.59-.25-1.18-.53-1.74-.83Zm2.82-243.08s-.08-.03-.13-.05h-.01c.06.02.09.04.13.06h.02s-.01,0-.01,0Zm4.16,1.31c.23.06.47.11.71.16.03.01.06.01.1.02.21.03.42.06.63.09-.48-.07-.96-.16-1.44-.27Zm-4.11-1.36h0c.65.3,1.32.56,2.01.78-.69-.23-1.36-.49-2.01-.78Zm3.9,245.34c.22.04.45.07.67.1.05.01.1.01.14.01.3.03.59.05.89.06-.57-.03-1.14-.09-1.7-.17Zm3.81.17c.3-.01.59-.03.89-.06.04,0,.09,0,.14-.01.23-.03.45-.07.68-.1-.57.08-1.13.14-1.71.17Zm6.73-1.55c.59-.25,1.18-.52,1.74-.83-.56.3-1.15.58-1.74.83Zm.24-243.09h.02c.07-.02.13-.04.19-.06.1-.04.21-.08.31-.12-.17.06-.35.12-.52.18Zm1.5,242.26c.85-.45,1.67-.96,2.44-1.53-.77.56-1.59,1.07-2.44,1.53Zm1.03-243.26c.75-.36,1.47-.76,2.17-1.2-.7.43-1.42.84-2.17,1.2Zm1.41,241.73c.78-.56,1.52-1.18,2.2-1.85-.69.66-1.42,1.28-2.2,1.85Zm10.14-97.52c-.25.35-.52.68-.78,1.01.18-.23.37-.46.55-.7.08-.1.16-.2.24-.31.03-.03.06-.07.08-.11-.03.04-.06.08-.09.11Zm-3.37,3.91c.3-.3.6-.61.89-.93.29-.32.58-.64.86-.97-.57.66-1.15,1.29-1.76,1.9,0,0,.01,0,.01,0Zm-.82.82c.28-.27.55-.54.81-.82-.29.31-.6.61-.91.91.03-.03.07-.06.1-.09Zm-26.95,11.01c.33,0,.67,0,1-.01h.02c.34-.02.68-.04,1.02-.07-.68.05-1.35.07-2.04.08Z"/>
      <path class="cls-4" d="m1377.89,727.99h.01s.06-.07.08-.11c-.03.04-.06.08-.09.11Zm-.23.31c.08-.1.16-.2.23-.31-.25.35-.52.68-.78,1.01.18-.23.37-.46.55-.7Zm-4.06,4.51s.07-.06.1-.09c.28-.27.55-.54.82-.82.3-.3.6-.61.89-.93.29-.32.58-.64.86-.97-.57.66-1.15,1.29-1.76,1.9-.29.31-.6.61-.91.91Zm-13.2,96.08c.47-.11.93-.24,1.39-.38-.53.17-1.06.32-1.61.44.08-.02.14-.04.22-.06Zm-9.23,0c.08.02.14.04.22.06-.55-.12-1.08-.27-1.61-.44.46.14.92.27,1.39.38Zm-2.38-85.24c.17-.01.33-.02.49-.03-.06,0-.12.01-.18.01-.1.01-.21.02-.31.02Zm-4.79,0c.32.02.64.04.96.05-.4-.02-.8-.04-1.2-.07.08,0,.16.01.24.02Zm-10.26-2.11c.06.03.12.05.19.07-.57-.19-1.13-.4-1.68-.62.49.19.99.38,1.49.55Zm-66.88,89.44c.08-.01.15-.01.22-.03-.15.01-.29.03-.44.05.08-.01.15-.01.22-.02Zm-4.39-.02c.47.05.95.09,1.43.11-.64-.03-1.27-.09-1.89-.17.15.03.3.04.46.06Zm-2.84-.5c.1.03.2.05.31.07.27.06.55.12.82.18-.38-.07-.76-.16-1.14-.25,0,0,0,0,0,0Zm-1.94-.56c.63.22,1.28.4,1.94.56-.58-.14-1.14-.3-1.7-.49-.08-.02-.16-.04-.24-.07Z"/>
      <path class="cls-4" d="m1440.88,868.98c-19.79,0-35.82,16.03-35.82,35.83,0,.56,0,1.12.05,1.66l-.02-.06h-195.46l-56.33-58.22-67.26-.07c2.84-11.22,5.14-22.64,6.86-34.26h149.98s.28-.01.28-.01h0c.98,4.19,3.13,7.92,6.08,10.83.48.47.97.91,1.49,1.34.01.01.02.01.03.02.5.41,1.03.81,1.57,1.18.02.01.04.02.06.04.53.36,1.08.7,1.64,1.01.03.02.08.04.11.06.55.3,1.11.58,1.68.84.05.02.11.04.17.07.56.24,1.12.46,1.7.66.08.03.16.05.24.07.56.19,1.12.35,1.7.49.1.03.2.05.31.07.27.06.55.12.82.18.29.05.58.09.87.14.13.02.25.03.38.05.62.08,1.25.14,1.89.17-.15,0-.3-.01-.45-.02.15.02.3.02.45.03.24.02.48.02.72.02.39,0,.76-.02,1.14-.04.3-.01.59-.04.88-.06.15-.02.29-.04.44-.05.03,0,.07,0,.1-.01.03,0,.05-.01.08-.01.05,0,.1-.01.15-.02.18-.02.35-.04.53-.07.03,0,.06,0,.09-.01.04-.01.07-.01.11-.02.29-.04.58-.1.87-.15.29-.06.57-.12.85-.19,3.95-.96,7.49-2.96,10.31-5.69.2-.2.4-.4.59-.6,3.81-4.01,6.15-9.43,6.15-15.38s-2.46-11.68-6.46-15.71c-.2-.2-.4-.4-.61-.6s-.42-.39-.63-.57c-.65-.55-1.33-1.07-2.03-1.56-.47-.32-.96-.62-1.45-.91-1.24-.71-2.55-1.3-3.93-1.77-.49-.17-.99-.32-1.5-.46-.5-.14-1.02-.26-1.54-.35-.52-.1-1.05-.18-1.59-.24-.27-.04-.53-.06-.8-.08-.27-.02-.55-.03-.82-.04-.3-.02-.61-.02-.93-.02-.28,0-.55,0-.82.02-.18.02-.36.03-.54.04-.17.01-.35.02-.53.04-1.32.13-2.6.37-3.84.72-.47.13-.93.28-1.38.43-.45.16-.9.33-1.34.52-.29.12-.58.25-.87.39-1.14.55-2.23,1.19-3.25,1.91-.77.54-1.51,1.13-2.2,1.76-3.93,3.59-6.57,8.56-7.15,14.14h0s-148.8,0-148.8,0c1.62-12.83,2.52-25.9,2.67-39.12h.17l215.15.22h.02-.01s.37-.01.37-.01h0s27.81,27.98,27.81,27.98h0c-.38.45-.73.92-1.07,1.39-.17.25-.33.49-.49.74-.31.49-.6,1-.88,1.52-1.5,2.86-2.34,6.12-2.34,9.59,0,3.09.68,6.03,1.9,8.67.27.58.57,1.15.89,1.7.96,1.67,2.16,3.18,3.53,4.51.69.66,1.42,1.28,2.2,1.85.77.56,1.59,1.07,2.44,1.53.56.3,1.15.58,1.74.83.5.21,1.02.4,1.54.57.08.02.16.05.24.07.46.14.92.27,1.39.38.08.02.14.04.22.06h.01c.51.11,1.03.21,1.56.29h.02s.03.01.05.01c.56.08,1.13.14,1.7.17-.3-.01-.59-.03-.89-.06.29.03.59.05.89.07.34.02.7.03,1.06.03h.18c.29,0,.58,0,.87-.03.3-.02.6-.04.89-.07-.3.03-.59.05-.89.06.58-.03,1.14-.09,1.71-.17.01-.01.03-.01.04-.01h.02c.53-.08,1.05-.18,1.56-.29h.01c.08-.02.14-.04.22-.06.47-.11.93-.24,1.39-.38.08-.02.16-.05.24-.07.52-.17,1.04-.36,1.54-.57.59-.25,1.18-.53,1.74-.83.85-.46,1.67-.97,2.44-1.53.78-.57,1.51-1.19,2.2-1.85,1.38-1.33,2.57-2.84,3.54-4.51.32-.55.62-1.12.89-1.7,1.22-2.64,1.9-5.58,1.9-8.67s-.68-6.03-1.89-8.67c-.27-.59-.57-1.15-.89-1.7-.16-.28-.33-.56-.5-.83-.35-.54-.71-1.05-1.11-1.55-.59-.76-1.23-1.47-1.92-2.13-.64-.63-1.32-1.21-2.05-1.74-.48-.35-.97-.69-1.48-1.01-.01-.01-.01,0-.01,0-2.82-1.73-6.08-2.81-9.57-3.02-.29-.04-.58-.04-.89-.04h-.17c-.46,0-.9.02-1.36.05-1.17.09-2.32.28-3.44.56-.38.09-.74.19-1.11.31-.62.19-1.23.41-1.83.67-.8.32-1.57.71-2.31,1.13h-.02l-.12-.11c-.09.03-.15.06-.24.11h-.02l-30.63-30.2h-218.13c-.1-16.53-1.4-32.75-3.76-48.64h214.73s.42,0,.42,0h0c1.53,7.68,5.28,14.56,10.56,19.93.42.43.85.84,1.28,1.25.07.07.15.13.22.2.37.33.74.66,1.12.99.1.08.2.16.3.24.36.3.72.6,1.09.88.11.09.22.18.34.26.32.25.64.49.97.71.04.04.09.07.13.1.12.09.24.17.37.25.37.26.74.51,1.12.75.12.08.25.16.38.24.31.21.63.4.95.58.07.04.14.08.21.12.13.07.24.15.37.22h.01c.4.22.8.44,1.21.65.12.07.25.13.37.19.42.21.85.42,1.28.62l.33.15c.43.19.86.38,1.3.56.03.01.05.02.08.03.09.03.18.07.28.11.49.19.99.38,1.49.55.06.03.12.05.19.07.54.19,1.1.36,1.65.53.02,0,.04.01.06.02.29.09.59.17.88.24.08.02.15.04.22.06.23.06.46.12.69.17.04.01.08.02.12.03.26.07.53.13.8.18.23.06.47.11.7.15.69.14,1.39.26,2.09.35.21.03.42.06.63.09.25.03.5.06.75.09h.08c.39.05.77.08,1.16.11.4.03.8.05,1.2.07-.26-.01-.51-.02-.76-.03.25.02.5.03.76.04.44.03.9.03,1.36.03h.43c.34,0,.67-.01,1-.02-.33.01-.67.01-1,.01.69-.01,1.36-.03,2.04-.08.1,0,.21-.01.31-.02.06,0,.12-.01.18-.01.75-.06,1.5-.13,2.24-.23.05-.01.1-.02.16-.02.75-.1,1.49-.23,2.22-.37.04-.01.09-.02.13-.03.74-.14,1.48-.31,2.2-.5.33-.08.66-.17.98-.27.44-.12.87-.25,1.3-.39.03-.01.05-.02.08-.03.73-.23,1.44-.49,2.15-.77.01,0,.03-.01.05-.02.71-.28,1.41-.58,2.11-.9,0,0,.01-.01.02-.01.4-.18.79-.37,1.17-.57.39-.2.78-.4,1.16-.61.38-.2.76-.42,1.13-.64.37-.22.74-.45,1.11-.68.36-.23.72-.47,1.08-.71s.71-.49,1.06-.75c.7-.51,1.38-1.04,2.04-1.59.29-.25.58-.49.87-.75.15-.12.29-.25.43-.39.05-.05.1-.09.15-.14.16-.14.32-.29.47-.44h.01c.31-.3.62-.6.91-.91.61-.61,1.19-1.24,1.76-1.9.27-.31.54-.64.81-.97l.03-.03c.26-.33.53-.66.78-1.01.03-.03.06-.07.09-.11.23-.31.46-.62.68-.93.18-.26.36-.53.53-.79.35-.52.69-1.05,1.02-1.59.48-.81.95-1.65,1.38-2.5.29-.56.56-1.13.82-1.71.13-.29.26-.59.39-.89.24-.58.47-1.17.69-1.77,1.53-4.22,2.37-8.77,2.37-13.52,0-21.7-17.46-39.29-39.11-39.53h-.43c-10.82.12-20.6,4.58-27.66,11.72-.22.22-.44.45-.66.68-.21.23-.42.46-.64.69-1.05,1.17-2.03,2.4-2.94,3.68-.36.52-.71,1.04-1.05,1.57,0,.01-.01.01-.01.01-.84,1.33-1.61,2.71-2.29,4.14,0,.01,0,.01,0,.01-.23.49-.45.98-.66,1.47-.17.38-.33.77-.48,1.16-.35.89-.66,1.8-.95,2.72-.14.46-.28.93-.4,1.39-.51,1.88-.87,3.81-1.1,5.78-.16,1.48-.25,2.98-.25,4.51h-.01s-215.62.01-215.62.01c-2.39-13.96-5.64-27.6-9.67-40.91h.03l187.99-.87h.01s78.99-78.49,78.99-78.49h.01c.05.01.08.02.13.04h.01l.04-.04h0c.65.28,1.32.54,2.01.77.23.08.46.15.69.22.47.14.93.26,1.41.36.48.11.96.2,1.44.27-.21-.03-.42-.06-.63-.09.21.03.42.07.63.1.29.05.56.07.85.1.32.02.65.05.99.07.32.04.63.04.95.04.36,0,.72-.02,1.06-.04.34-.02.68-.03,1.02-.07.34-.03.66-.06.98-.12.31-.05.63-.1.94-.15s.6-.12.89-.19c.28-.06.56-.13.85-.22.19-.06.39-.12.57-.18.01,0,.02,0,.03,0,.17-.06.35-.12.52-.18t.02,0s.09-.03.13-.05c.37-.13.74-.27,1.1-.42.26-.11.51-.23.76-.34.75-.36,1.47-.77,2.17-1.2.69-.44,1.36-.92,2-1.44.21-.17.42-.35.63-.53.41-.36.8-.74,1.18-1.13,3.62-3.72,5.85-8.8,5.85-14.41s-2.22-10.68-5.85-14.4c-.19-.2-.38-.39-.58-.58-.59-.57-1.22-1.1-1.88-1.59-.22-.17-.44-.33-.67-.48-.45-.31-.91-.61-1.39-.88-.48-.28-.97-.54-1.47-.77-.5-.24-1.01-.46-1.53-.66-.52-.2-1.05-.37-1.59-.53-.29-.08-.57-.15-.85-.22-.29-.07-.58-.13-.89-.19-.31-.05-.63-.1-.94-.15-.32-.05-.64-.08-.98-.12-.34-.03-.68-.05-1.02-.07-.34-.01-.7-.03-1.06-.03-.31,0-.59,0-.88.03-.34.02-.69.04-1.03.07-.32.04-.66.07-.98.12-.33.05-.63.1-.94.15-.31.06-.59.12-.88.19-.58.14-1.14.31-1.69.48-1.15.39-2.26.88-3.31,1.45-.35.2-.69.4-1.03.61-.33.21-.66.43-.99.66-.32.23-.64.47-.95.72-.2.16-.4.33-.6.5-.13.1-.26.21-.38.33-.27.24-.53.49-.79.75-3.73,3.74-6.04,8.9-6.04,14.61s2.2,10.61,5.77,14.32c.23.24.47.49.72.72h.01s-76.39,74.9-76.39,74.9h-.01s-187.73.01-187.73.01l.58,1.82c-.2-.62-.41-1.21-.63-1.83-4.61-14.06-10.13-27.69-16.46-40.88h62.14l48.23-49.03h35.5c3.47,7.79,11.28,13.24,20.37,13.24,12.32,0,22.31-9.99,22.31-22.32s-9.99-22.29-22.31-22.29-22.29,9.97-22.29,22.29c0,1.03.06,2.01.2,3h-35.74l-47.36,47.79h-64.67c-12.75-25.04-28.49-48.3-46.74-69.34l57.87-57.13c3.08,1.64,6.6,2.55,10.34,2.55,12.33,0,22.3-9.99,22.3-22.31s-9.97-22.29-22.3-22.29-22.31,9.97-22.31,22.29c0,5.87,2.28,11.22,5.99,15.2v.02l-57.09,55.79c-11.95-13.16-24.89-25.38-38.7-36.56v-93.6c9.73-1.67,17.15-10.16,17.15-20.38,0-11.42-9.26-20.67-20.68-20.67s-20.69,9.25-20.69,20.67c0,10.03,7.13,18.38,16.61,20.27v87.74c-20.7-15.82-43.23-29.33-67.24-40.19v-130.8l58.06-57.98c2.85,1.32,6.01,2.05,9.35,2.05,12.32,0,22.31-9.99,22.31-22.31s-9.99-22.29-22.31-22.29-22.3,9.97-22.3,22.29c0,6.67,2.93,12.65,7.56,16.73l-59.92,59.98v129.17c-27.17-11.52-56.11-19.66-86.31-23.88v-86.4l50.64-51.28V127.42c19.7-2.23,35.02-18.95,35.02-39.28,0-21.83-17.72-39.53-39.55-39.53s-39.54,17.7-39.54,39.53,16.53,38.36,37.34,39.49l.05,38.63.16,116.8-24.39,24.29-7.8,7.76-18,17.93v88.01c-13.79-1.69-27.83-2.55-42.07-2.55-7.93,0-15.81.27-23.61.8v-178.58l-35.14-34.64-9.19-9.05-11.66-11.49v-104.36c17.82-2.06,31.64-17.18,31.64-35.57,0-19.77-16.03-35.82-35.82-35.82s-35.81,16.05-35.81,35.82c0,18.64,14.21,33.94,32.38,35.66v106.88l21.48,21.17,8.97,8.85,25.97,25.59v176.1c-23.31,2.06-45.97,6.45-67.7,12.93v-141.03l-81.33-81.91c2.5-3.42,3.96-7.63,3.96-12.17,0-11.42-9.25-20.7-20.67-20.7s-20.68,9.28-20.68,20.7,9.26,20.68,20.68,20.68c4.37,0,8.4-1.35,11.74-3.66l79.78,81.19-.83,139.16c-21.34,6.9-41.8,15.8-61.1,26.52v-65.33c8.6-2.52,14.86-10.45,14.86-19.87,0-11.42-9.26-20.67-20.68-20.67s-20.69,9.25-20.69,20.67,8.44,19.85,19.14,20.63v68.77c-26.5,15.58-50.71,34.57-72.05,56.4l-64.64-65.71v-130.55c6.67-3.84,11.16-11.06,11.16-19.33,0-12.32-9.97-22.29-22.29-22.29s-22.31,9.97-22.31,22.29,9.99,22.31,22.31,22.31c1.43,0,2.82-.13,4.18-.39v131.66l66.6,67.24c-15.83,16.85-29.95,35.3-42.14,55.07h-38.36l-43.45-45.4h-37.15c-1.77-10.56-10.94-18.59-22.01-18.59-12.32,0-22.31,9.97-22.31,22.3s9.99,22.31,22.31,22.31c10.93,0,20.02-7.85,21.92-18.21h34.86l7.91,8.42,12.55,13.39,21.68,23.13h37.63c-7.02,12.05-13.33,24.54-18.86,37.46h-96.97l-45.41-44.83h-159.67c-2.59-19.35-19.13-34.25-39.18-34.25-21.85,0-39.55,17.7-39.55,39.55s17.7,39.53,39.55,39.53,38.41-16.59,39.49-37.47h157.42l44.96,45.22h96.14c-5.87,14.67-10.77,29.83-14.6,45.42h-167.31c-1.55-10.77-10.84-19.08-22.07-19.08-12.33,0-22.32,9.99-22.32,22.29s9.99,22.32,22.32,22.32c10.9,0,19.98-7.83,21.92-18.16h165.72c-3.16,14.24-5.46,28.81-6.8,43.67H138.42l-43.76,43.62c-3.59-3-8.2-4.79-13.22-4.79-11.44,0-20.7,9.26-20.7,20.68s9.26,20.7,20.7,20.7,20.68-9.28,20.68-20.7c0-3.52-.89-6.84-2.44-9.73l41.99-43.03h266.68c-.59,8.21-.88,16.48-.88,24.83,0,10.9.51,21.67,1.49,32.31l-149.5-.06c-2.42-15.69-14.05-28.33-29.21-32.25h-.02c-3.16-.8-6.45-1.22-9.85-1.22-7.23,0-14.01,1.94-19.84,5.36l-.02.02c-11.76,6.82-19.67,19.57-19.67,34.17,0,21.84,17.69,39.54,39.53,39.54s38.56-16.73,39.5-37.74h149.9c1.7,14.73,4.34,29.16,7.85,43.25h-30.69l-9.26,9.16-.11.11-8.92,8.84-43.4,42.94h-171.52c-2.91-16.85-17.61-29.65-35.28-29.65-19.79,0-35.82,16.03-35.82,35.81s16.03,35.82,35.82,35.82,35.83-16.03,35.83-35.82h173.13l52.06-51.57,8.95-8.88.26-.26h0s.87-.01.87-.01h-.04s29.8.01,29.8.01c6.47,24.05,15.49,47.06,26.76,68.71l-47.67,47.99c-3.31-2.21-7.25-3.49-11.51-3.49-5.73,0-10.92,2.35-14.67,6.14-.25.26-.49.51-.73.77-.87.93-1.62,1.96-2.28,3.05-.24.39-.48.79-.7,1.2-1.46,2.85-2.3,6.09-2.3,9.51,0,5.71,2.31,10.88,6.06,14.62,1.64,1.64,3.55,3,5.66,4.02.67.32,1.37.62,2.09.87.24.09.48.17.72.24,1.94.6,4.01.93,6.15.93,1.43,0,2.81-.14,4.15-.42.67-.14,1.33-.3,1.98-.5.64-.2,1.27-.43,1.89-.69.31-.13.61-.27.91-.41.26-.13.52-.26.77-.4.19-.09.37-.19.55-.3.22-.12.43-.25.64-.38.18-.11.36-.22.53-.34.08-.05.16-.11.24-.16.36-.25.71-.51,1.06-.77.39-.31.77-.62,1.13-.95h.01c.24-.23.48-.46.71-.69.26-.26.49-.5.73-.76.87-.93,1.64-1.96,2.28-3.05.24-.39.48-.8.7-1.2h0c.04-.08.07-.15.1-.22,1.4-2.81,2.2-5.96,2.2-9.31,0-4.49-1.45-8.65-3.9-12.05h0s.12-.12.12-.12t0,0h-.01v-.02l45.53-47.06h.01l.04-.05c16.22,29.78,36.71,56.89,60.64,80.53l-75.64,76.89h-.01c-7.18-7.54-17.34-12.25-28.59-12.25-21.84,0-39.54,17.7-39.54,39.53s17.7,39.55,39.54,39.55,39.53-17.71,39.53-39.55c0-7.83-2.26-15.11-6.19-21.24l75.83-78.15c17.85,16.95,37.51,32.01,58.66,44.85v.28l-.34,91.81h.01v.67h-.01c-1.27.15-2.5.41-3.68.78-1.09.34-2.14.76-3.14,1.27-.37.18-.74.37-1.1.58-.52.31-1.03.63-1.52.97-3.81,2.67-6.67,6.58-8,11.15-.14.44-.25.89-.35,1.34-.29,1.3-.45,2.64-.48,4.02h0c.08,6.37,3.03,12.04,7.62,15.79.22.18.45.36.68.53.46.34.93.67,1.42.98,3.18,1.98,6.95,3.14,10.97,3.14s7.79-1.16,10.97-3.14c.49-.31.96-.64,1.42-.98.23-.17.46-.35.68-.53,4.58-3.75,7.53-9.42,7.61-15.78h0c-.03-1.53-.23-3.02-.57-4.44-.14-.57-.3-1.13-.48-1.68-.18-.55-.39-1.09-.62-1.62-.39-.92-.86-1.82-1.38-2.66-.26-.43-.54-.84-.83-1.25-.58-.8-1.22-1.57-1.91-2.28-.17-.18-.35-.35-.53-.53-.89-.86-1.86-1.64-2.89-2.33-.71-.48-1.45-.91-2.22-1.29-.39-.19-.78-.37-1.17-.54-.27-.11-.54-.22-.81-.31-.27-.11-.54-.2-.82-.29-.48-.17-.97-.31-1.47-.42-.21-.06-.42-.1-.64-.15v-.67l-.34-88.53v-.29c19.93,11.54,41.12,21.16,63.33,28.56v167.07l-73.15,74.37h0s-.17.18-.17.18l-9.36,9.5h0c-3.59-2.99-8.19-4.77-13.22-4.77-1.58,0-3.12.17-4.6.51-.49.11-.98.24-1.46.39-.63.19-1.26.41-1.86.66h0c-.92.39-1.79.83-2.63,1.33-.29.17-.57.34-.84.53-.55.36-1.07.74-1.57,1.15-.01,0-.01.01-.01.01-.5.4-.99.83-1.45,1.28-1.65,1.6-3.03,3.47-4.06,5.54-.29.57-.56,1.16-.79,1.76h0c-.13.32-.24.63-.34.95-.64,1.89-1,3.9-1.06,5.98v.04c.14,4.53,1.73,8.7,4.31,12.04.3.38.61.76.94,1.12h0c.33.37.66.72,1.01,1.06.46.45.95.88,1.46,1.29.44.36.9.7,1.37,1.02.47.32.96.62,1.46.9,2.99,1.68,6.45,2.64,10.13,2.64,1.75,0,3.45-.21,5.07-.62h0c.65-.17,1.28-.36,1.9-.58,1.86-.67,3.61-1.6,5.18-2.75.52-.39,1.03-.79,1.52-1.22.24-.22.48-.44.71-.66,1.16-1.13,2.19-2.39,3.06-3.77.35-.55.67-1.11.97-1.69h0c.3-.59.57-1.19.81-1.8.84-2.15,1.35-4.48,1.43-6.91v-.07h0c-.09-3.62-1.11-7-2.84-9.93v-.03l.39-.4h0c-.12-.25-.26-.49-.39-.73v-.03l83.73-85.53h0s-.41-167.8-.41-167.8v-.33c22.8,7.2,46.63,12.1,71.21,14.4v201.97s.01.94.01.94l-31.48,30.93-.14.13-7.45,7.34-21.75,21.36v109.67c-.18.01-.36.03-.54.04-.21.01-.42.03-.63.07-.42.04-.85.1-1.27.16-.06-.01-.12,0-.17.02-1.09.16-2.17.38-3.23.63-2.43.6-4.77,1.44-6.97,2.5-1.84.89-3.59,1.93-5.24,3.1-1.66,1.18-3.2,2.49-4.62,3.92-6.26,6.3-10.19,14.91-10.4,24.44v.28c.11,10.41,4.66,19.75,11.85,26.23.64.57,1.29,1.12,1.97,1.65.67.52,1.36,1.02,2.07,1.5.24.16.48.31.72.47,1.45.92,2.97,1.74,4.55,2.45.56.25,1.13.49,1.7.71.29.11.58.22.87.32.87.31,1.75.59,2.65.84,3.01.81,6.17,1.25,9.43,1.25s6.42-.44,9.42-1.25c.9-.25,1.79-.53,2.66-.84.29-.1.58-.21.87-.32.57-.22,1.14-.46,1.7-.71,1.57-.71,3.09-1.53,4.54-2.45.24-.16.48-.31.72-.47.71-.48,1.4-.98,2.07-1.5.68-.53,1.33-1.08,1.97-1.65,7.19-6.48,11.75-15.82,11.86-26.23v-.27c-.09-3.89-.79-7.62-2.02-11.11-.35-.99-.75-1.96-1.18-2.91-1.74-3.81-4.12-7.27-7.02-10.23-.68-.69-1.39-1.36-2.12-2-.49-.42-.99-.83-1.5-1.23-.26-.2-.52-.4-.78-.59-.52-.38-1.06-.75-1.6-1.11-.81-.53-1.65-1.03-2.51-1.5-.57-.31-1.15-.61-1.74-.89-.59-.28-1.19-.54-1.8-.79-.3-.13-.61-.25-.92-.36-1.54-.58-3.13-1.06-4.76-1.42-.99-.22-1.98-.39-2.99-.53-.16-.04-.29-.05-.45-.05v-109.27l12.89-12.65.05-.04h0s7.54-7.41,7.54-7.41l40.35-39.64v-202.89c8.42.63,16.93.94,25.51.94,12.15,0,24.17-.63,35.99-1.87v127.65l50.96,50.93v1.07l-.46,144.21h.02s.01.02.01.02h-.03v1.03l.03.03c-.57.06-1.14.14-1.71.22-2.27.34-4.47.88-6.59,1.61-1.06.36-2.11.76-3.13,1.2-4.59,2-8.72,4.84-12.2,8.33-7.02,7.04-11.4,16.71-11.53,27.4.15,10.79,4.62,20.54,11.76,27.59.89.88,1.83,1.72,2.8,2.52.73.59,1.48,1.16,2.25,1.71.52.36,1.04.71,1.57,1.05,6.12,3.88,13.38,6.13,21.16,6.13s15.03-2.25,21.15-6.13c0-.01.01,0,.01,0,.53-.35,1.05-.69,1.56-1.05t.01,0c.77-.55,1.51-1.12,2.24-1.71.97-.8,1.91-1.64,2.8-2.52,7.14-7.05,11.6-16.8,11.74-27.59-.13-10.59-4.42-20.18-11.33-27.21-.41-.42-.83-.82-1.25-1.21-.84-.78-1.72-1.53-2.63-2.25,0-.01-.01,0-.01,0-5.93-4.62-13.23-7.59-21.18-8.21v-148.97l-50.85-50.63v-1.06l-.17-124.55v-.41c31.06-3.85,60.84-11.85,88.77-23.42v158.94l62.34,63.16h0c-.1.1-.2.2-.29.3-.1.1-.19.2-.27.3h0s.56.58.56.58h0c-.31.32-.6.63-.88.95-.56.64-1.09,1.31-1.59,2.01-.25.35-.48.71-.71,1.08h0c-.36.59-.69,1.2-1,1.82-.46.94-.86,1.92-1.18,2.92-.42,1.29-.72,2.62-.9,4-.01.09-.02.17-.03.26-.04.34-.07.68-.1,1.03-.02.3-.03.61-.04.92v.24c.01.2.02.39.03.58.07,1.17.22,2.31.46,3.43.05.22.1.44.15.66.05.22.11.44.17.66.2.69.42,1.37.68,2.04,1.17,2.99,2.96,5.67,5.22,7.88.75.74,1.56,1.42,2.41,2.04.57.41,1.16.8,1.76,1.17.91.54,1.86,1.02,2.85,1.43.33.14.66.26,1,.39,2.35.84,4.89,1.3,7.54,1.3s5.2-.46,7.55-1.3c.34-.13.67-.25,1-.39.99-.41,1.95-.9,2.86-1.43.61-.37,1.19-.76,1.76-1.17.85-.62,1.66-1.3,2.41-2.04,4.02-3.92,6.56-9.34,6.72-15.36h0c-.31-12.06-10.16-21.74-22.3-21.74-2.01,0-3.96.27-5.82.77-.87.23-1.72.52-2.54.85-.82.34-1.62.72-2.39,1.14l-59.59-59.31v-1.18l-.51-161.62v-.44c21.26-9.4,41.39-20.87,60.13-34.16v106.13c-.9.14-1.78.35-2.64.6-.64.2-1.27.42-1.89.67-.21.08-.41.17-.61.26-.54.24-1.07.51-1.59.8-.51.28-1.01.58-1.49.91,0,0-.01,0-.01.01-.48.32-.95.67-1.4,1.03-3.25,2.61-5.69,6.19-6.89,10.3-.13.42-.24.86-.33,1.29-.28,1.25-.45,2.54-.49,3.86h0c.04,2.12.39,4.16,1.01,6.07.2.63.44,1.25.7,1.86.14.31.29.61.42.91.3.59.62,1.16.97,1.72h0c.35.56.72,1.1,1.11,1.62.21.26.42.52.62.78.43.49.87.97,1.33,1.43.93.92,1.95,1.75,3.05,2.48.54.36,1.1.7,1.68,1.01.29.15.59.3.89.45,2.69,1.27,5.7,1.99,8.88,1.99s6.2-.72,8.89-1.99c.3-.15.6-.3.89-.45.58-.31,1.14-.65,1.69-1.01,1.09-.73,2.11-1.56,3.04-2.48.46-.46.91-.94,1.34-1.43.2-.26.41-.52.61-.78.4-.52.77-1.06,1.12-1.61h0c.35-.57.67-1.14.96-1.73.14-.3.29-.6.42-.91.27-.61.5-1.23.71-1.86.62-1.91.97-3.95,1.01-6.06h0c-.1-3.13-.89-6.08-2.22-8.7-.27-.53-.56-1.03-.86-1.53-.31-.5-.64-.98-.99-1.45-.53-.71-1.1-1.38-1.7-2-.41-.44-.83-.84-1.27-1.21-1.07-.94-2.24-1.77-3.49-2.47-2.08-1.17-4.37-1.99-6.82-2.38v-111c17.16-12.79,33.09-27.14,47.57-42.87l.26.26h0s35.14,35.02,35.14,35.02v.05l.58.57h0s-.15,126.78-.15,126.78h.07s-.03.01-.05.01h.04c-.26.05-.52.1-.77.15-.15.02-.29.06-.43.1-.56.12-1.11.28-1.66.45-8.99,2.86-15.5,11.28-15.5,21.22,0,3.18.67,6.2,1.86,8.93.27.61.56,1.2.87,1.77h0c.48.88,1.01,1.71,1.59,2.5.39.53.8,1.04,1.23,1.53l.02.02s.08.08.13.13c.47.48.96.94,1.47,1.39,3.91,3.37,9,5.42,14.57,5.42,12.32,0,22.29-9.99,22.29-22.31,0-5.57-2.04-10.68-5.43-14.58h0c-.11-.13-.19-.22-.31-.33-1.07-1.11-2.26-2.1-3.55-2.97-1.03-.69-2.12-1.3-3.26-1.82-1.14-.52-2.33-.94-3.57-1.26-.92-.23-1.87-.41-2.84-.53v-.55c-.19-.03-.39-.06-.58-.08v-129.29l-37.75-37.29c18.81-21.17,35.06-44.69,48.23-70.07,0,0,0,0,.01,0,.05-.09.1-.18.14-.27.23-.42.45-.83.66-1.25l-.75,1.51,75.76.05,43.86,43.26h0c-1.98,2.1-3.52,4.59-4.48,7.35-.11.31-.21.62-.31.93-.56,1.88-.86,3.86-.86,5.91,0,5.69,2.3,10.84,6.02,14.58,1.16,1.17,2.46,2.2,3.88,3.07.28.17.57.34.86.5,1.45.79,3.02,1.42,4.66,1.86.66.17,1.33.31,2.01.42.25.04.51.08.77.11.78.09,1.56.13,2.36.14-.05.01-.11.01-.17.01h.17c.14,0,.29,0,.41-.02,1.37-.07,2.7-.27,3.98-.59.64-.16,1.27-.35,1.89-.57,1.54-.55,3-1.28,4.34-2.15.4-.27.8-.54,1.18-.83.39-.29.76-.6,1.13-.91,2.17-1.9,3.95-4.24,5.18-6.89.27-.59.52-1.19.74-1.8.76-2.16,1.18-4.49,1.18-6.91s-.44-4.87-1.24-7.08c-.23-.63-.49-1.24-.78-1.84h0c-.28-.61-.6-1.19-.94-1.75h0c-.14-.24-.28-.47-.43-.69-.44-.67-.92-1.32-1.44-1.93-.35-.41-.71-.81-1.08-1.19-1.87-1.92-4.11-3.46-6.6-4.53-.27-.12-.54-.23-.81-.33-1.09-.41-2.23-.74-3.41-.97-.88-.17-1.78-.28-2.7-.34-.35-.02-.71-.04-1.06-.04-.42,0-.84.03-1.26.07-.31.03-.62.06-.93.11-.31.03-.61.08-.92.14-.2.03-.41.07-.61.11-.5.11-.99.23-1.48.37-1.46.43-2.86,1.01-4.16,1.74l-.26-.25c-.17.08-.35.17-.52.27h0s-45.48-46.21-45.48-46.21l-75-.05.02-.02c9.24-18.84,16.83-38.65,22.55-59.24l67.07.07,56.93,57.86h198.08c3.88,15.58,17.95,27.13,34.75,27.13,19.78,0,35.81-16.05,35.81-35.82s-16.03-35.83-35.81-35.83Zm-84.91-73.43c7.3,0,13.24,5.92,13.24,13.24s-5.94,13.22-13.24,13.22-13.24-5.92-13.24-13.22,5.94-13.24,13.24-13.24Zm-9.22-124.7c18.41,0,33.36,14.93,33.36,33.34s-14.95,33.36-33.36,33.36-33.36-14.95-33.36-33.36,14.94-33.34,33.36-33.34Zm10.91-119.01c7.32,0,13.24,5.94,13.24,13.24s-5.92,13.24-13.24,13.24-13.23-5.94-13.23-13.24,5.93-13.24,13.23-13.24ZM812.94,88.14c0-18.41,14.92-33.34,33.34-33.34s33.36,14.93,33.36,33.34-14.95,33.36-33.36,33.36-33.34-14.92-33.34-33.36Zm-257.44,122.76c-7.32,0-13.24-5.92-13.24-13.22s5.92-13.24,13.24-13.24,13.24,5.92,13.24,13.24-5.94,13.22-13.24,13.22ZM94.03,621.09c-18.43,0-33.35-14.93-33.35-33.34s14.92-33.36,33.35-33.36,33.34,14.93,33.34,33.36-14.92,33.34-33.34,33.34Zm-12.59,183.15c-7.32,0-13.24-5.92-13.24-13.24s5.92-13.22,13.24-13.22,13.22,5.92,13.22,13.22-5.92,13.24-13.22,13.24Zm138.94,30.5c-18.41,0-33.34-14.93-33.34-33.34s14.93-33.36,33.34-33.36,33.36,14.95,33.36,33.36-14.95,33.34-33.36,33.34Zm166.41,165.47c-7.32,0-13.24-5.92-13.24-13.24s5.92-13.24,13.24-13.24,13.24,5.94,13.24,13.24-5.94,13.24-13.24,13.24Zm52.54,113.45c0,18.41-14.95,31.88-33.36,31.88s-33.34-13.47-33.34-31.88,14.93-33.36,33.34-33.36,33.36,14.93,33.36,33.36Zm437.28,357.62c0,18.41-14.95,31.19-33.36,31.19s-33.36-12.78-33.36-31.19,14.94-33.36,33.36-33.36,33.36,14.94,33.36,33.36Zm316.09-505.31c7.3,0,13.22,5.92,13.22,13.24s-5.92,13.23-13.22,13.23-13.25-5.93-13.25-13.23,5.93-13.24,13.25-13.24Zm-240.89-584.92c0-7.31,5.92-13.24,13.24-13.24s13.23,5.93,13.23,13.24-5.93,13.25-13.23,13.25-13.24-5.94-13.24-13.25Zm-385.78-4.68c0-7.3,5.92-13.22,13.24-13.22s13.22,5.92,13.22,13.22-5.92,13.24-13.22,13.24-13.24-5.92-13.24-13.24Zm22.75,794.75c0,7.31-5.92,13.24-13.22,13.24s-13.24-5.93-13.24-13.24,5.92-13.24,13.24-13.24,13.22,5.93,13.22,13.24Zm379.03-.34c0,7.31-5.92,13.24-13.24,13.24s-13.22-5.93-13.22-13.24,5.92-13.23,13.22-13.23,13.24,5.92,13.24,13.23Zm97.3-406.21c0,172.93-140.17,313.1-313.08,313.1-74.85,0-143.55-26.28-197.57-70.1v-252.78l-11.01-20.72-2.28-4.3-12.44-23.4-2.57-4.84-2.34-4.39v281.12l.04,24.29c-15.62-14.62-29.89-30.69-42.58-47.96v-31.47c-38.18-64.67-53.75-144.29-35.86-227.93,24.95-116.74,115.56-208.96,231.93-235.56,154.33-35.26,295.6,43.4,356.15,168.4-16.05-.02-31.13-.12-45.85-.25-2.12-.04-4.23-.06-6.33-.07-32.04-.33-62.78-.75-98.57-.75-17.36.93-46.46,11.06-67.94,27.59-18.35,14.1-29.88,29.86-36.42,40.65-3.18,5.26-5.17,9.35-6.19,11.49-8.58,18.18-11.83,36.2-12.5,51.84-.13,3.59-.15,7.06-.06,10.38.12,3.85.35,7.47.69,10.86,1.33,13.6,4.07,23.21,4.91,26.14.68,2.37,1.39,4.68,2.17,6.94,1.93,5.6,4.12,10.85,6.54,15.73.92,1.89,1.87,3.73,2.86,5.5.64,1.2,1.33,2.37,2.01,3.51h0s.01,0,.01,0c2.08,3.52,4.26,6.83,6.49,9.93h0c14.11,19.53,30.51,31.02,39.7,36.68l.04.02c1.54.94,2.87,1.72,3.96,2.35,13.24,7.67,26.09,12.22,37.12,14.94,6.55,1.64,12.46,2.61,17.41,3.2h.02c1.26.15,2.45.29,3.57.39,9.96.02,19.93.04,29.89.05,3.6,0,7.21.02,10.8.02,17.7.03,35.4.05,53.08.09.04-26.08.07-52.15.11-78.24v-1.14c.01-2.26.01-4.51.01-6.77l-3.64-.02h-.02l-26.38-.07.12,46.68.02,8.39h-65.04s-4.4-.86-10.28-2.38c-1.82-.47-3.8-1.02-5.81-1.61-4.61-1.37-9.53-3.02-13.68-4.92-1.77-.82-5.38-2.52-10.02-5.33-1.84-1.11-3.85-2.4-5.98-3.86-6.5-4.5-14.07-10.73-21.37-19.08-4.73-5.41-14.47-16.78-21.12-33.97-.68-1.77-1.35-3.61-1.94-5.51-1.42-4.33-2.59-8.97-3.44-13.94-.04-.24-.09-.48-.12-.7-.22-1.31-.41-2.6-.58-3.88v-.02c-.2-1.65-.37-3.27-.49-4.87h0c-.14-1.68-.22-3.31-.26-4.93-.37-12.44,1.58-23.33,4.04-31.98,2.43-8.54,5.34-14.89,6.97-18.4,8.24-17.53,19.39-29.47,27.1-36.37,3.38-3.02,6.12-5.07,7.66-6.19,17.92-13.05,35.6-17.44,45.18-19.13,32.59,0,71.67-.05,109.84-.07,6.11-.01,12.18-.01,18.21-.01,12.35-.02,24.47-.04,36.1-.04,6.85-.02,13.53-.02,19.99-.02,4.34,13.4,7.85,27.17,10.47,40.22h-18.52c4.63,22.46,7.07,44.69,7.07,67.46Z"/>
      <path class="cls-4" d="m646.72,775.31c-2.03-.94-3.25-3.01-3.1-5.21l3.1,5.21Z"/>
      <g>
        <path class="cls-4" d="m838.52,1429.61h0s.02.01.02.01h-.02Zm-50.5-196.21v1.05l50.96,50.94v-1.06l-50.96-50.93Zm94.42,236.05c-.14,10.79-4.6,20.54-11.74,27.59-.89.88-1.83,1.72-2.8,2.52-.73.6-1.48,1.17-2.24,1.71t-.01,0c-.52.37-1.04.72-1.56,1.05,0,0-.01-.01-.01,0-6.12,3.88-13.37,6.13-21.15,6.13s-15.04-2.25-21.16-6.13c-.53-.34-1.05-.69-1.57-1.05-.77-.55-1.52-1.12-2.25-1.71-.97-.8-1.91-1.64-2.8-2.52-7.14-7.05-11.61-16.8-11.76-27.59-.01.17-.01.34-.01.51,0,21.83,17.71,39.55,39.55,39.55s39.53-17.72,39.53-39.55c0-.17,0-.34-.02-.51Zm-43.92-38.79v-1.04c-19.76,2.18-35.14,18.94-35.14,39.28,0,.19,0,.38.01.55.13-10.69,4.51-20.36,11.53-27.4,3.48-3.49,7.61-6.33,12.2-8.33,1.02-.45,2.07-.85,3.13-1.2,2.12-.73,4.32-1.27,6.59-1.61.56-.09,1.13-.17,1.7-.23l-.02-.02Zm-43.33-200.75v1.05l50.85,50.63v-1.05l-50.85-50.63Zm50.85,199.59v1.06c7.96.61,15.25,3.58,21.18,8.22,0,0,.01-.01.01,0,.91.71,1.79,1.45,2.63,2.25.42.39.84.79,1.25,1.21,6.91,7.03,11.2,16.62,11.33,27.21.02-.17.02-.36.02-.55,0-20.78-16.03-37.83-36.42-39.4Z"/>
        <path class="cls-4" d="m1346.75,664.65c21.65.24,39.11,17.83,39.11,39.53,0,4.75-.84,9.3-2.37,13.52-.22.6-.45,1.19-.69,1.77-.13.3-.26.6-.39.89-.26.58-.53,1.15-.82,1.71-.43.85-.9,1.69-1.38,2.5-.33.54-.67,1.07-1.02,1.59-.17.26-.35.53-.53.79-.22.31-.45.62-.68.93-.03.04-.06.08-.09.11-.25.35-.52.68-.78,1.01l-.03.03c-.27.33-.54.66-.81.97-.57.66-1.15,1.29-1.76,1.9-.29.31-.6.61-.91.91h-.01c-.16.16-.31.3-.47.44-.05.05-.1.09-.15.14-.14.13-.29.26-.43.39-.29.26-.58.5-.87.75-.66.55-1.34,1.08-2.04,1.59-.35.26-.7.51-1.06.75s-.72.48-1.08.71c-.37.23-.74.46-1.11.68-.37.22-.75.44-1.13.64-.38.21-.77.42-1.16.61-.38.2-.77.39-1.17.57-.01,0-.02.01-.02.01-.7.32-1.4.62-2.11.9-.02.01-.04.02-.05.02-.71.28-1.42.54-2.15.77-.03,0-.05.02-.08.03-.43.14-.86.27-1.3.39-.29.09-.58.17-.87.25-.04,0-.07.01-.11.02-.72.19-1.46.36-2.2.5-.04.01-.09.02-.13.03-.73.14-1.47.27-2.22.37-.06,0-.11.01-.16.02-.74.1-1.49.17-2.24.23-.06,0-.12.01-.18.01-.1.01-.21.02-.31.02-.68.05-1.35.07-2.04.08.33,0,.67,0,1-.01h.02c21.37-.54,38.51-18.04,38.51-39.54s-17.69-39.53-39.53-39.53Zm-2.99,78.98c-.39-.03-.77-.06-1.16-.11h-.06c-.23-.02-.45-.05-.68-.08-.03,0-.06,0-.09-.01-.21-.02-.42-.05-.63-.09-.7-.09-1.4-.21-2.09-.35-.23-.04-.47-.09-.7-.15-.1-.01-.19-.03-.29-.06-.17-.03-.34-.07-.51-.12-.04,0-.08,0-.12-.03-.23-.05-.46-.11-.69-.17-.06-.01-.12-.03-.18-.04-.01-.01-.02-.01-.04-.02-.29-.07-.59-.15-.88-.24-.02,0-.04-.02-.06-.02-.55-.17-1.11-.34-1.65-.53-.57-.19-1.13-.4-1.68-.62-.1-.04-.19-.08-.28-.11-.03-.01-.05-.02-.08-.03-.44-.18-.87-.37-1.3-.56l-.33-.15c-.43-.2-.86-.41-1.28-.62-.12-.06-.25-.12-.37-.19-.41-.21-.81-.43-1.21-.65h-.01c-.13-.07-.24-.15-.37-.22-.07-.04-.14-.08-.21-.12-.32-.19-.64-.38-.95-.58-.13-.08-.26-.16-.38-.24-.38-.24-.75-.49-1.12-.75-.13-.08-.25-.16-.37-.25-.04-.03-.09-.06-.13-.1-.33-.22-.65-.46-.97-.71-.12-.08-.23-.17-.34-.26-.37-.28-.73-.58-1.09-.88-.1-.08-.2-.16-.3-.24-.38-.33-.75-.66-1.12-.99-.07-.07-.15-.13-.22-.2-.43-.41-.86-.82-1.28-1.25-5.28-5.37-9.03-12.25-10.56-19.92h0s-.42,0-.42,0h0c3.42,17.13,17.91,30.29,35.67,31.64.07.01.13.02.2.01.19.02.38.03.57.04.06,0,.13,0,.2.02.25.01.5.02.76.03-.4-.02-.8-.04-1.2-.07Zm-36.97-39.45h.43c0-1.53.09-3.03.25-4.51.23-1.97.59-3.9,1.1-5.78.12-.46.26-.93.4-1.39.29-.92.6-1.83.95-2.72.15-.39.31-.78.48-1.16.21-.49.43-.98.66-1.47,0,0,0,0,0-.01.68-1.43,1.45-2.81,2.29-4.14,0,0,.01,0,.01-.01.34-.53.69-1.05,1.05-1.57.91-1.28,1.89-2.51,2.94-3.68.22-.23.43-.46.64-.69.22-.23.44-.46.66-.68,7.06-7.14,16.84-11.6,27.66-11.72-21.83,0-39.53,17.7-39.53,39.53Z"/>
        <path class="cls-4" d="m975.25,1170.11c-.04,2.11-.39,4.15-1.01,6.06-.21.63-.44,1.25-.71,1.86-.13.31-.28.61-.42.91-.29.59-.61,1.16-.96,1.72h0c-.35.56-.72,1.1-1.12,1.62-.2.26-.41.52-.61.78-.43.49-.88.97-1.34,1.43-.93.92-1.95,1.75-3.04,2.48-.54.36-1.11.7-1.69,1.01-.29.15-.59.3-.89.45-2.69,1.27-5.71,1.99-8.89,1.99s-6.19-.72-8.88-1.99c-.3-.15-.6-.3-.89-.45-.58-.31-1.14-.65-1.68-1.01-1.1-.73-2.12-1.56-3.05-2.48-.46-.46-.9-.94-1.33-1.43-.2-.26-.41-.52-.62-.78-.39-.52-.76-1.06-1.11-1.61h0c-.35-.57-.67-1.14-.97-1.73-.13-.3-.28-.6-.42-.91-.26-.61-.5-1.23-.7-1.86-.62-1.91-.97-3.95-1.01-6.06-.02.22-.02.44-.02.66,0,11.43,9.26,20.69,20.68,20.69s20.69-9.26,20.69-20.69c0-.22,0-.44,0-.66Zm-17.34-20.79v1.04c2.44.39,4.74,1.21,6.81,2.39,1.25.7,2.42,1.53,3.49,2.47.44.37.86.77,1.27,1.21.6.62,1.17,1.29,1.7,2,.35.47.68.95.99,1.45.31.49.6,1.01.86,1.53,1.33,2.62,2.12,5.57,2.22,8.69,0-.12,0-.25,0-.37,0-10.28-7.5-18.82-17.35-20.41Zm-24.02,20.41c0,.12,0,.25.02.37.04-1.32.21-2.61.49-3.86.09-.43.2-.87.33-1.29,1.2-4.11,3.64-7.69,6.89-10.3.45-.36.92-.71,1.4-1.03,0-.01.01-.01.01-.01.48-.33.98-.63,1.49-.91.52-.29,1.05-.56,1.59-.8.2-.09.4-.18.61-.26.61-.26,1.24-.48,1.89-.67.86-.26,1.74-.46,2.64-.61v-1.04c-9.84,1.59-17.36,10.11-17.36,20.41Z"/>
        <path class="cls-4" d="m1192.7,958.51c-.21,0-.39,0-.6.02.35,0,.71.02,1.06.04.92.05,1.82.17,2.7.34,1.18.22,2.32.55,3.41.97.27.1.54.21.81.33,2.49,1.07,4.73,2.61,6.6,4.53.37.38.74.78,1.08,1.19.52.61,1,1.26,1.44,1.93.15.22.29.45.43.68h0c.34.57.66,1.15.94,1.75h0c.29.61.55,1.22.78,1.85.8,2.21,1.24,4.59,1.24,7.08s-.42,4.75-1.18,6.91c-.22.61-.47,1.21-.74,1.8-1.23,2.65-3.01,4.99-5.18,6.89-.37.31-.74.62-1.13.91-.38.29-.78.56-1.18.83-1.34.87-2.8,1.6-4.34,2.15-.62.22-1.25.41-1.89.57-1.28.32-2.61.52-3.98.59,11.3-.14,20.4-9.33,20.4-20.67s-9.25-20.69-20.67-20.69Zm-55.43-43.65l-75.77-.05h-.01s74.99.06,74.99.06h0s45.48,46.21,45.48,46.21c.17-.1.34-.19.52-.26h.01s-45.22-45.96-45.22-45.96Zm52.93,84.88c-.26-.03-.52-.07-.77-.11-.68-.11-1.35-.25-2.01-.42-1.64-.44-3.21-1.07-4.66-1.86-.29-.16-.58-.33-.86-.5-1.42-.87-2.72-1.9-3.88-3.07-3.72-3.74-6.02-8.89-6.02-14.58,0-2.05.3-4.03.86-5.91.09-.31.19-.62.31-.93.96-2.76,2.5-5.25,4.48-7.34h0s-43.86-43.27-43.86-43.27l-75.76-.05.75-1.51c-.21.42-.43.83-.66,1.25-.04.09-.09.18-.14.27h.05l74.98.06,43.86,43.26c-3.51,3.71-5.65,8.69-5.65,14.19,0,11.42,9.26,20.68,20.69,20.68.16,0,.32,0,.48-.01.06,0,.12,0,.17-.01-.8-.01-1.58-.05-2.36-.14Zm1.71-41.21c-3.4,0-6.6.81-9.42,2.28l.25.25c1.3-.73,2.7-1.31,4.16-1.73.49-.14.98-.26,1.48-.37.2-.04.41-.08.61-.11.31-.06.61-.11.92-.14.31-.05.62-.08.93-.11.42-.04.84-.06,1.26-.07h-.19Z"/>
        <path class="cls-4" d="m1348.95,583.91h-.01s-78.99,78.49-78.99,78.49h.18l78.94-78.43h.01s-.08-.04-.13-.06Zm14.26-38.73c.54.16,1.07.33,1.59.53.52.2,1.03.42,1.53.66.5.23.99.49,1.47.77.48.27.94.57,1.39.88.23.15.45.31.67.48.66.49,1.29,1.02,1.88,1.59.2.19.4.38.58.58,3.63,3.72,5.85,8.79,5.85,14.4s-2.23,10.69-5.85,14.41c-.38.39-.77.77-1.18,1.13-.21.18-.42.36-.63.53-.64.52-1.31,1-2,1.44-.7.43-1.42.84-2.17,1.2-.25.11-.5.23-.76.34-.36.15-.73.29-1.1.42-.04.02-.09.03-.13.05t-.02,0c-.17.06-.35.12-.52.18h.02c.07-.02.13-.04.19-.06,8.31-2.65,14.33-10.45,14.33-19.65s-6.41-17.5-15.14-19.89Zm-283.86,109.84h0s-.05-.01-.05-.01c.22.62.43,1.21.63,1.83l-.58-1.82Zm257.44-89.95c0,5.92,2.51,11.28,6.51,15.04l-76.4,74.9h.19l76.38-74.9c-.25-.23-.49-.48-.72-.72-3.57-3.71-5.77-8.77-5.77-14.32s2.31-10.87,6.04-14.61c.26-.26.52-.51.79-.75.12-.12.25-.23.38-.33.2-.18.4-.35.6-.5.31-.26.62-.5.95-.72.32-.24.65-.46.99-.66.33-.22.68-.43,1.03-.61.49-.28,1-.53,1.52-.77-7.35,3.16-12.49,10.46-12.49,18.95Zm16.45,20.2c-.48-.1-.94-.22-1.41-.36-.23-.07-.46-.14-.69-.22-.69-.23-1.36-.49-2.01-.78h0s-.04.05-.04.05c1.53.68,3.16,1.19,4.86,1.47.03.01.06.01.1.02.21.03.42.06.63.09-.48-.07-.96-.16-1.44-.27Z"/>
        <path class="cls-4" d="m449.21,927.7h-.01l-45.53,47.06h0s.01.02.01.02h0l45.53-47.07h-.01Zm-49.6,75.44c.13-.09.26-.19.38-.29.26-.21.51-.43.75-.66-.36.33-.74.64-1.13.95Zm-1.3.93c-.17.12-.35.23-.53.34-.21.13-.42.26-.64.38-.18.11-.36.21-.55.3-.25.14-.51.27-.77.4-.3.14-.6.28-.91.41-.62.26-1.25.49-1.89.69-.65.2-1.31.36-1.98.5-1.34.28-2.72.42-4.15.42-2.14,0-4.21-.33-6.15-.93-.24-.07-.48-.15-.72-.24-.72-.25-1.42-.55-2.09-.87-2.11-1.02-4.02-2.38-5.66-4.02-3.75-3.74-6.06-8.91-6.06-14.62,0-3.42.84-6.66,2.3-9.51-1.53,2.89-2.4,6.16-2.4,9.64,0,11.42,9.26,20.68,20.68,20.68,4.56,0,8.77-1.5,12.19-4.01.01-.01.02-.01.03-.03.2-.14.4-.29.6-.46-.35.26-.7.52-1.06.77-.08.05-.16.11-.24.16Zm9.26-17.24c0-4.49-1.45-8.64-3.88-12.04l-.12.11h0c2.45,3.41,3.9,7.57,3.9,12.06,0,3.35-.8,6.5-2.2,9.31,1.47-2.84,2.3-6.03,2.3-9.44Z"/>
        <path class="cls-4" d="m697.09,1514.1c0,19.78-16.05,35.83-35.82,35.83s-35.83-16.05-35.83-35.83c0-.18,0-.34.02-.53.11,10.41,4.66,19.75,11.85,26.23.64.57,1.29,1.12,1.97,1.65.67.52,1.36,1.02,2.07,1.5.24.16.48.31.72.47,1.45.92,2.97,1.74,4.55,2.45.56.25,1.13.49,1.7.71.29.11.58.22.87.32.87.31,1.75.59,2.65.84,3.01.81,6.17,1.25,9.43,1.25s6.42-.44,9.42-1.25c.9-.25,1.79-.53,2.66-.84.29-.1.58-.21.87-.32.57-.22,1.14-.46,1.7-.71,1.57-.71,3.09-1.53,4.54-2.45.24-.16.48-.31.72-.47.71-.48,1.4-.98,2.07-1.5.68-.53,1.33-1.08,1.97-1.65,7.19-6.48,11.75-15.82,11.86-26.23.01.17.01.35.01.53Z"/>
        <polygon class="cls-4" points="726.52 1309.57 726.52 1310.51 686.17 1350.14 678.63 1357.55 678.58 1357.6 665.69 1370.24 665.69 1369.31 678.58 1356.66 678.63 1356.62 678.63 1356.61 686.17 1349.21 726.52 1309.57"/>
        <path class="cls-4" d="m658.53,1477.46v.94c-.18.01-.36.03-.54.05-.21.01-.42.03-.63.07-.43.03-.85.09-1.27.16-.06-.01-.12,0-.17.02-1.1.15-2.17.36-3.23.63-2.43.59-4.77,1.43-6.97,2.5-1.84.88-3.6,1.92-5.24,3.1-1.66,1.18-3.2,2.49-4.62,3.92-6.26,6.3-10.19,14.91-10.4,24.44-.02-.05-.02-.07-.02-.12,0-18.86,14.57-34.33,33.09-35.71Z"/>
        <path class="cls-4" d="m697.09,1513.17c0,.07,0,.1-.01.13-.09-3.89-.79-7.62-2.02-11.11-.35-.99-.75-1.96-1.18-2.91-1.74-3.81-4.12-7.27-7.02-10.23-.68-.69-1.39-1.36-2.12-2-.49-.42-.99-.84-1.5-1.23-.26-.2-.52-.4-.78-.59-.52-.38-1.06-.76-1.6-1.11-.81-.53-1.65-1.03-2.51-1.5-.57-.31-1.15-.61-1.74-.89-.59-.28-1.19-.54-1.8-.79-.3-.13-.61-.25-.92-.36-1.54-.58-3.13-1.06-4.76-1.42-.99-.22-1.98-.4-2.99-.54-.16-.03-.29-.05-.45-.05v-.94c.16,0,.29.02.45.05,17.47,2.37,30.95,17.36,30.95,35.49Z"/>
        <polygon class="cls-4" points="719.35 1308.04 719.35 1308.98 687.87 1339.9 687.87 1339.91 687.73 1340.04 680.28 1347.37 658.53 1368.73 658.53 1367.79 680.28 1346.43 687.73 1339.1 687.87 1338.96 719.35 1308.04"/>
        <path class="cls-4" d="m659.04,1478.36c-.17,0-.34,0-.51.03"/>
        <path class="cls-4" d="m946.13,1303.63h0c-.1.1-.2.2-.29.3-.1.1-.19.2-.27.3l-61.78-62.6v-1.16l62.34,63.16Z"/>
        <path class="cls-4" d="m984.28,1320.5c0,12.32-9.99,22.29-22.31,22.29s-22.29-9.97-22.29-22.29c0-.15,0-.31.02-.46.01.2.02.39.03.58.07,1.17.22,2.31.46,3.43.05.22.1.44.15.66.05.22.11.44.17.66.2.69.42,1.37.68,2.04,1.17,2.99,2.96,5.67,5.22,7.88.75.74,1.56,1.42,2.41,2.04.57.41,1.16.8,1.76,1.17.91.54,1.86,1.02,2.85,1.43.33.14.66.26,1,.39,2.35.84,4.89,1.3,7.54,1.3s5.2-.46,7.55-1.3c.34-.13.67-.25,1-.39.99-.41,1.95-.9,2.86-1.43.61-.36,1.19-.75,1.76-1.17.85-.62,1.66-1.3,2.41-2.04,4.02-3.92,6.56-9.34,6.72-15.36.01.19.01.38.01.57Z"/>
        <path class="cls-4" d="m946.13,1304.81h0c-.31.32-.6.63-.88.95-.58.64-1.1,1.31-1.59,2.01-.25.35-.48.71-.71,1.08h0c-.36.59-.69,1.2-1,1.82-.46.94-.86,1.92-1.18,2.92-.42,1.29-.72,2.62-.9,4-.01.09-.02.17-.03.26-.04.34-.07.68-.1,1.03-.02.3-.03.61-.04.92-.02-.15-.02-.31-.02-.48,0-5.82,2.23-11.1,5.89-15.08l.56.57Z"/>
        <path class="cls-4" d="m984.28,1319.32c0,.21,0,.41-.01.6-.31-12.05-10.16-21.73-22.3-21.73-2.01,0-3.96.27-5.82.77-.87.23-1.72.52-2.54.85-.82.33-1.62.71-2.39,1.13l-59.59-59.31v-1.17l59.59,59.31c3.18-1.75,6.86-2.76,10.75-2.76,12.32,0,22.31,9.99,22.31,22.31Z"/>
        <polygon class="cls-4" points="1040.87 1031.78 1040.87 1031.83 1005.71 996.78 1005.73 996.76 1005.73 996.75 1040.87 1031.78"/>
        <path class="cls-4" d="m1048.07,1029.7v128.75c-.19-.04-.39-.07-.58-.09v-129.24l.58.58Z"/>
        <path class="cls-4" d="m1067.61,1181.11c0,12.33-9.97,22.32-22.3,22.32-6.6,0-12.54-2.87-16.61-7.44.47.48.96.94,1.47,1.39,3.91,3.37,9,5.42,14.57,5.42,12.32,0,22.29-9.99,22.29-22.31,0-5.57-2.04-10.68-5.43-14.58,3.73,3.98,6.01,9.32,6.01,15.2Z"/>
        <path class="cls-4" d="m1041.45,1032.41l-.15,126.77h.07s-.03.01-.05.01h-.02c-.24.05-.48.09-.71.15-.15.02-.29.06-.43.1-.56.12-1.11.28-1.66.45-8.99,2.86-15.5,11.28-15.5,21.22,0,3.18.67,6.2,1.86,8.93.27.61.56,1.2.87,1.77h0c.48.88,1.01,1.71,1.59,2.5.39.53.8,1.04,1.23,1.53-3.79-4-6.13-9.42-6.13-15.35,0-10.98,7.93-20.09,18.37-21.94h-.07l.15-126.72.58.57h0Z"/>
        <path class="cls-4" d="m1061.29,1165.58c-1.07-1.11-2.26-2.1-3.55-2.97-1.03-.69-2.12-1.3-3.26-1.82-1.14-.52-2.33-.94-3.57-1.26-.92-.24-1.87-.42-2.84-.54v-.54c5.23.78,9.85,3.37,13.22,7.13Z"/>
        <path class="cls-4" d="m1266.64,831c.15-.02.29-.04.44-.05-.07.02-.14.02-.22.03-.07.01-.14.01-.22.02Z"/>
        <path class="cls-4" d="m1268.14,830.81c.47-.07.92-.17,1.38-.26-.17.04-.34.08-.51.11-.29.05-.58.11-.87.15Z"/>
        <path class="cls-4" d="m1266.37,786.55s0,0,.01,0c-.28-.02-.55-.04-.83-.05.27.01.55.03.82.05Z"/>
        <path class="cls-4" d="m1269.52,830.54c.11-.03.23-.05.34-.08,3.95-.96,7.49-2.96,10.31-5.69.2-.2.4-.4.59-.6,3.81-4.01,6.15-9.43,6.15-15.38s-2.46-11.68-6.46-15.71c-.19-.21-.4-.41-.61-.6-.21-.2-.42-.39-.63-.57-.65-.56-1.33-1.08-2.03-1.56-.47-.32-.96-.62-1.45-.91-1.24-.71-2.55-1.3-3.93-1.77-.49-.17-.99-.33-1.5-.46-.5-.14-1.02-.26-1.54-.35-.52-.1-1.05-.18-1.59-.24-.27-.04-.52-.06-.79-.08,1.98.12,3.9.5,5.69,1.13,8.8,2.97,15.11,11.31,15.11,21.12,0,10.71-7.56,19.63-17.66,21.75Z"/>
        <path class="cls-4" d="m1263.9,831.07c-.15,0-.3-.01-.45-.02-.15,0-.3-.02-.45-.03h-.06c-9.82-.73-17.87-7.82-20.06-17.16h0s.28-.01.28-.01h0c.98,4.19,3.13,7.92,6.08,10.83.48.47.97.91,1.49,1.34.01.01.02.01.03.02.5.41,1.03.81,1.57,1.18.02.01.04.02.06.04.53.36,1.08.7,1.64,1.01.03.02.08.04.11.06.55.3,1.11.58,1.68.84.05.02.11.04.17.07.56.24,1.12.46,1.7.66.08.03.16.05.24.07.56.19,1.12.35,1.7.49.38.09.75.18,1.14.25.29.05.58.09.87.14.13.02.25.03.38.05.62.08,1.25.14,1.89.17Z"/>
        <path class="cls-4" d="m1263.8,786.5c-.18.02-.36.03-.54.05-.17.01-.35.02-.53.04-1.32.13-2.6.37-3.84.72-.47.13-.93.27-1.38.43-.45.16-.9.33-1.34.52-.29.12-.58.25-.87.39-1.14.54-2.23,1.18-3.25,1.91-.77.54-1.51,1.13-2.2,1.76-3.93,3.59-6.57,8.56-7.15,14.14h-.27c1.08-10.51,9.49-18.85,20.03-19.87.44-.05.88-.07,1.34-.09Z"/>
        <path class="cls-4" d="m1315.1,760.6h-.38l30.63,30.21h.02c.09-.05.15-.09.24-.12l-30.51-30.09Zm41.76,27.52c3.5.21,6.75,1.29,9.57,3.03,0,0,0-.01.01,0,.51.31,1,.65,1.48,1.01.73.53,1.41,1.11,2.05,1.74.69.66,1.33,1.37,1.92,2.13.4.5.76,1.01,1.11,1.55.17.27.34.55.5.83.32.55.62,1.11.89,1.7,1.21,2.64,1.89,5.57,1.89,8.67s-.68,6.03-1.9,8.67c-.27.58-.57,1.15-.89,1.7-.97,1.67-2.16,3.18-3.54,4.51-.69.66-1.42,1.28-2.2,1.85-.77.56-1.59,1.07-2.44,1.53-.56.3-1.15.58-1.74.83-.5.21-1.02.4-1.54.57-.08.02-.16.05-.24.07-.53.17-1.06.32-1.61.44h-.01c-.51.11-1.03.21-1.56.29h-.02s-.03,0-.04.01c-.57.08-1.13.14-1.71.17.3-.01.59-.03.89-.06.04,0,.09,0,.14-.01,10.54-.94,18.78-9.79,18.78-20.57s-8.78-20.2-19.79-20.66Zm-3.83,41.13s-.03-.01-.05-.01h-.02c-.53-.08-1.05-.18-1.56-.29h-.01c-.55-.12-1.08-.27-1.61-.44-.08-.02-.16-.05-.24-.07-.52-.17-1.04-.36-1.54-.57-.59-.25-1.18-.53-1.74-.83-.85-.46-1.67-.97-2.44-1.53-.78-.57-1.51-1.19-2.2-1.85-1.37-1.33-2.57-2.84-3.53-4.51-.32-.55-.62-1.12-.89-1.7-1.22-2.64-1.9-5.58-1.9-8.67,0-3.47.84-6.73,2.34-9.59.27-.52.56-1.03.88-1.52.16-.25.32-.49.49-.74.34-.47.69-.94,1.07-1.38h0s-27.81-27.98-27.81-27.98h0s-.37-.01-.37-.01h.01s27.79,27.98,27.79,27.98c-2.99,3.59-4.78,8.2-4.78,13.24,0,10.78,8.24,19.63,18.78,20.57.05.01.1.01.14.01.3.03.59.05.89.06-.57-.03-1.14-.09-1.7-.17Zm-7.42-38.56h0s.12.12.12.12h.02c.74-.42,1.51-.81,2.31-1.13.6-.26,1.21-.48,1.83-.67.37-.12.73-.22,1.11-.31,1.12-.29,2.27-.48,3.44-.57-3.18.16-6.19,1.08-8.83,2.56Z"/>
        <line class="cls-4" x1="1064.4" y1="475.76" x2="1064.38" y2="475.78"/>
        <polygon class="cls-4" points="389.55 852.94 389.51 852.95 388.43 853.2 388.68 852.95 388.68 852.94 389.55 852.94"/>
        <polygon class="cls-4" points="389.55 852.94 389.51 852.95 388.43 853.2 388.68 852.95 388.68 852.94 389.55 852.94"/>
        <line class="cls-4" x1="438.97" y1="1091.11" x2="438.87" y2="1091.23"/>
        <line class="cls-4" x1="434.24" y1="1085.07" x2="433.9" y2="1085.43"/>
        <path class="cls-4" d="m588.63,1186.47c-.22.18-.45.36-.68.53-.46.34-.93.67-1.42.98-3.18,1.98-6.94,3.14-10.97,3.14s-7.79-1.16-10.97-3.14c-.49-.31-.96-.64-1.42-.98-.23-.17-.46-.35-.68-.53-4.59-3.75-7.54-9.42-7.62-15.78v.42c0,11.42,9.27,20.68,20.69,20.68s20.68-9.26,20.68-20.68v-.42c-.08,6.36-3.03,12.03-7.61,15.78Zm-15.49-36.57c-10.28,1.22-18.27,9.94-18.27,20.54v.24c.03-1.38.19-2.72.48-4.02.1-.45.21-.9.35-1.34,1.33-4.57,4.19-8.48,8-11.15.49-.34,1-.66,1.52-.97.36-.21.73-.4,1.1-.58,1-.51,2.05-.93,3.14-1.27,1.18-.37,2.41-.63,3.68-.78h.01v-.67h-.01Zm6.76.33v.66c.22.05.43.1.64.16.5.11.99.25,1.47.42.28.08.55.18.82.29.27.09.54.2.81.31.39.17.78.35,1.17.54.77.38,1.51.81,2.22,1.29,1.03.69,2,1.47,2.89,2.33.18.17.36.34.53.53.69.71,1.33,1.47,1.91,2.28.29.41.57.82.83,1.25.52.84.99,1.74,1.38,2.66.23.53.44,1.07.62,1.62.18.55.34,1.11.48,1.68.34,1.42.54,2.91.57,4.43v-.24c0-9.94-6.99-18.22-16.34-20.21Z"/>
        <path class="cls-4" d="m567.67,1356.99c0,11.42-9.26,20.69-20.68,20.69s-20.7-9.27-20.7-20.69c0-.19,0-.37.02-.54.14,4.53,1.73,8.7,4.31,12.04.3.38.61.76.94,1.12h0c.33.37.66.72,1.01,1.06.46.45.95.88,1.46,1.29.44.36.9.7,1.37,1.02.47.32.96.62,1.46.9,2.99,1.68,6.45,2.64,10.13,2.64,1.75,0,3.45-.21,5.07-.62h0c.65-.17,1.28-.36,1.9-.58,1.86-.67,3.61-1.6,5.18-2.75.52-.39,1.03-.79,1.52-1.22.24-.22.48-.44.71-.66,1.16-1.13,2.19-2.39,3.06-3.77.35-.55.67-1.11.97-1.69h0c.3-.59.57-1.19.81-1.8.84-2.15,1.35-4.48,1.43-6.91.02.15.02.31.02.47Z"/>
        <path class="cls-4" d="m648.54,1259.8v1.15l-83.34,85.13c-.12-.24-.26-.48-.39-.72v-.03l83.73-85.53Z"/>
        <path class="cls-4" d="m567.67,1355.83c0,.2,0,.41-.02.61-.09-3.61-1.11-6.99-2.84-9.92v-.03l.39-.4c1.58,2.91,2.47,6.22,2.47,9.74Z"/>
        <path class="cls-4" d="m642.89,1255.88v1.16l-73.15,74.37h0s-.17.17-.17.17h0s-9.36,9.51-9.36,9.51c-3.59-2.99-8.18-4.78-13.22-4.78-1.58,0-3.12.18-4.6.52-.49.11-.98.24-1.46.39-.63.19-1.26.41-1.86.66h0c-.92.39-1.79.83-2.63,1.33-.29.17-.57.34-.84.53-.55.36-1.07.74-1.57,1.15-.01,0-.01.01-.01.01-.5.4-.99.83-1.45,1.28-1.65,1.6-3.03,3.47-4.06,5.54-.29.57-.56,1.16-.79,1.76h0c-.13.32-.24.63-.34.95-.64,1.89-1,3.9-1.06,5.98-.02-.19-.02-.39-.02-.58,0-11.42,9.26-20.68,20.7-20.68,5.04,0,9.63,1.79,13.22,4.78l9.36-9.51.17-.17,73.15-74.37Z"/>
      </g>
    </g>
    <path class="cls-4" d="m724.01,626.58v279.11l-36.76.75-5.7-9.73-4.65-7.95-16.15-27.57-16.03-27.37v-.02l-14.52-24.8-3.18-5.43-8.1-13.82-2.79-4.77-5-8.54-2.62-4.48-4.9-8.37-2.71-4.61-5.62-9.6-7.16-12.24-3.9-6.65-2.94-5.04-3.88-6.6-5.68-9.72-2.47-4.22-9.99-17.07-3.08-5.24-11.69-19.98-3.25-5.55-10.62-18.14-3.44-5.84-1.31-2.25-2.06-3.52h35.28l28.83,48.67,12.56,21.24,5.12,8.63,3.34,5.65,20.9,35.3,7.59,12.78,4.36,7.37,1.84,3.11v.02c-.15,2.2,1.07,4.27,3.1,5.21l4.32,7.3,2.04,3.44,7.93,13.43s.02.02.02.02l13.96,23.55,13.17,22.24,1.26,2.13,1.12-.39h.02l.97-.32v-11.44l.02-24.61v-7.37l.02-3.76v-28.57l.02-13.72v-12.56l.02-9.12v-26.28l.02-9.43.03-72.91,32.37-.36Z"/>
    <rect class="cls-4" x="874.41" y="748.15" width="108.92" height="30.63"/>
  </g>
  <path class="cls-3" d="m1044.47,795.57c0,6.52-5.28,11.79-11.78,11.79s-11.79-5.28-11.79-11.79,5.28-11.78,11.79-11.78,11.78,5.28,11.78,11.78Z"/>
  <path class="cls-3" d="m544.26,765.42c0,3.51-2.84,6.35-6.35,6.35s-6.35-2.84-6.35-6.35,2.84-6.36,6.35-6.36,6.35,2.84,6.35,6.36Z"/>
  <path class="cls-3" d="m517.98,722.63c0,3.49-2.86,6.33-6.37,6.33s-6.35-2.84-6.35-6.33,2.84-6.36,6.35-6.36,6.37,2.84,6.37,6.36Z"/>
  <path class="cls-3" d="m550.64,627.02c0,3.51-2.84,6.35-6.37,6.35s-6.35-2.84-6.35-6.35,2.84-6.36,6.35-6.36,6.37,2.84,6.37,6.36Z"/>
  <g>
    <path class="cls-2" d="m520.68,718.23c.22-.75.35-1.55.35-2.38,0-4.68-3.79-8.48-8.47-8.48s-8.46,3.8-8.46,8.48,3.79,8.44,8.46,8.44c2.84,0,5.34-1.38,6.87-3.52l4.39,2.43v-3.2l-3.14-1.77Zm-8.12,3.95c-3.51,0-6.35-2.84-6.35-6.33s2.84-6.37,6.35-6.37,6.36,2.84,6.36,6.37-2.84,6.33-6.36,6.33Z"/>
    <g>
      <path class="cls-2" d="m987.65,627.78c-2.12-.04-4.23-.06-6.33-.07-2.98-4.41-6.81-9.65-12.05-16.41-11.91-15.32-17.85-22.99-27.43-32.45-14.42-14.27-27.32-23.17-35.11-28.49-6.11-4.19-17.67-11.75-33.24-19.54-8.88-4.44-24.85-11.85-45.92-18.19-10.16-3.08-24.06-7.2-43-9.52-18.71-2.26-32.97-1.61-44.34-1.05-12.21.61-28.67,1.51-49.6,6.6-18.79,4.56-31.95,10.25-44.87,15.83-14.34,6.21-28.98,12.64-45.73,25.17-4.9,3.66-8.91,7.04-11.96,9.75.49.82,1.43,2.69,1.43,5.11,0,5.43-4.39,9.82-9.82,9.82s-9.8-4.39-9.8-9.82,4.39-9.81,9.8-9.81c1.97,0,3.9.63,5.5,1.72,4.27-3.84,9.53-8.27,15.74-12.85,14.53-10.72,26.84-16.85,34.82-20.76,10.21-5,25.15-11.52,43.98-16.88,25.13-7.17,46.44-9.21,59.82-9.86,8.32-.39,28.06-.95,53.11,2.81,7.37,1.11,33.82,5.4,66.51,18.65,16.22,6.59,36.05,16.43,59.81,34.48,20.84,15.85,35.58,30.59,42.92,39.37,10.77,12.9,20.13,26.5,25.34,35.62.12.22.27.48.42.77Z"/>
      <path class="cls-2" d="m1010.7,660.6c0,5.42-4.39,9.82-9.81,9.82s-9.82-4.4-9.82-9.82c0-1.27.26-2.51.72-3.64,6.11-.01,12.18-.01,18.21-.01.44,1.12.7,2.36.7,3.65Z"/>
      <g>
        <path class="cls-2" d="m523.82,908.99v11.54c-6.74-9.99-12.35-19.55-15.82-26.53-1.35-2.72-5.93-12.17-11.13-23.69-.12-.29-.24-.55-.36-.82-.26,0-.51,0-.78-.01-5.42-.31-9.55-4.96-9.24-10.35.3-5.41,4.95-9.55,10.36-9.24,5.41.3,9.55,4.95,9.22,10.36-.18,3.27-1.95,6.09-4.52,7.73,1.51,3.93,3.52,8.69,6.09,13.99,3.22,6.62,7.33,14.04,16.18,27.02Z"/>
        <path class="cls-2" d="m921.08,980.34c-.33,5.42-4.96,9.54-10.37,9.24-1.97-.11-3.84-.85-5.39-2.03-4.48,3.61-9.98,7.71-16.43,11.91-15.13,9.88-27.77,15.27-35.97,18.73-10.47,4.4-25.77,10.07-44.87,14.34-25.51,5.7-46.88,6.52-60.29,6.4-8.33-.08-28.07-.66-52.86-5.85-7.29-1.53-33.46-7.32-65.32-22.45-15.81-7.49-35.06-18.47-57.75-37.85-6.43-5.5-12.23-10.84-17.37-15.86v-8.02c12.01,12.68,22.74,21.05,29.49,26.26,5.86,4.53,16.97,12.73,32.08,21.39,8.63,4.96,24.12,13.26,44.78,20.82,9.97,3.66,23.62,8.58,42.39,11.95,18.55,3.33,32.83,3.52,44.2,3.6,12.25.09,28.73.12,49.92-3.74,19.02-3.47,32.47-8.39,45.67-13.24,14.69-5.36,29.68-10.94,47.11-22.48,5.11-3.37,9.31-6.52,12.53-9.06-.44-.85-1.3-2.77-1.16-5.19.32-5.39,4.95-9.53,10.36-9.22,5.42.3,9.55,4.95,9.25,10.35Z"/>
      </g>
      <path class="cls-2" d="m600.9,758.99c-1.5,1-3.17,1.75-4.94,2.25l-.68-11.85,5.62,9.6Z"/>
      <path class="cls-2" d="m589.5,761.64c-7.9-1.36-13.89-8.24-13.89-16.51,0-6.3,3.47-11.78,8.61-14.64l3.9,6.65,1.38,24.49Z"/>
      <path class="cls-2" d="m1031.88,785.09l-55.91-103.63c-5.55-10.28-18.4-14.13-28.68-8.58l-9.17,4.95c-10.3,5.55-14.14,18.38-8.58,28.68l22.46,41.64h31.31v30.63h-14.79l16.9,31.35c5.57,10.3,18.4,14.13,28.69,8.58l9.17-4.95c10.28-5.55,14.13-18.38,8.58-28.68Zm-26.19,24.12c-6.52,0-11.79-5.28-11.79-11.79s5.28-11.78,11.79-11.78,11.78,5.28,11.78,11.78-5.28,11.79-11.78,11.79Z"/>
      <path class="cls-2" d="m643.92,864.09c-2.38,2.55-4.75,5.11-7.13,7.64-18.3-17.14-36.59-34.29-54.87-51.45,5.89-13.38,12.02-26.63,18.16-39.86,3.95-.73,7.66-2.09,11.05-3.98l5,8.54c-4.22,2.62-7.57,3.49-10.47,4.42-3.61,7.91-7.22,15.83-10.82,23.74-.17,2.3-.34,4.58-.53,6.86,16.54,14.7,33.08,29.39,49.61,44.08Z"/>
      <path class="cls-2" d="m691.61,699.85l-.02,9.43c-9.45,1.26-17.67-2.18-21.8-4.31-7.4-2.81-14.79-5.62-22.18-8.44-3.61,7.83-5.72,10.96-9.33,18.79-.8,2.06-4.29,8.71-3.88,11.3.09,6.45,6.6,9.9,3.81,29.19-.19,1.21-.41,2.45-.8,3.8l-7.59-12.78c.07-.75.09-1.51.09-2.28,0-6.72-1.82-13.02-5-18.41,6.09-13.89,11.86-27.79,17.07-41.82,20.01,8.83,21.46,8.65,31.83,13.43,2.74,1.28,6.93,2.89,12.59,2.76,1.82-.05,3.56-.27,5.21-.65Z"/>
      <path class="cls-2" d="m769.25,694.69c-2.98,1.94-5.97,3.86-8.97,5.8-3.63-3.66-7.2-5.97-9.75-7.39-2.93-1.63-9.12-4.63-17.43-5.28-3.68-.29-6.28-.49-9.09.44v-9.12c2.33-.6,4.27-.71,5.6-.82,8.66-.77,15.01,1.23,21.44,4.22,4.59,2.13,11.25,5.84,18.19,12.13Z"/>
      <path class="cls-2" d="m743.5,888.69c0,4.63-2.03,9.22-5.92,12.32l-32.69,26.06c-7.81,6.23-19.21,4.94-25.44-2.88l-2.31-2.91c-5.67-7.11-4.49-17.48,2.62-23.15l1.8-1.43,5.7,9.73,36.76-.75v-35.23c6.08.41,11.96,3.28,16.07,8.44,2.31,2.89,3.42,6.35,3.42,9.79Z"/>
      <path class="cls-2" d="m676.91,888.75l-15.62,13.85c-6.52,5.79-16.47,5.19-22.26-1.33-2.67-3-3.98-6.74-3.98-10.45,0-4.36,1.8-8.7,5.31-11.81l18.52-16.42c.6-.53,1.23-1.02,1.89-1.41l16.15,27.57Z"/>
      <path class="cls-2" d="m787.9,911.24c0,5.63-2.47,11.2-7.22,14.96l-41.82,33.34c-6.79,5.39-16.68,4.29-22.09-2.5l-3.93-4.94c-5.6-7.03-4.44-17.26,2.59-22.87l41.36-32.95c8.27-6.59,20.34-5.22,26.94,3.05,2.81,3.52,4.17,7.74,4.17,11.91Z"/>
      <path class="cls-2" d="m818.03,940.24c0,3.86-1.6,7.71-4.71,10.48l-28.23,25.05c-9.04,8.02-22.87,7.2-30.89-1.84l-1-1.12c-3.35-3.78-3.01-9.56.77-12.92l34.38-30.51c7.66-6.79,19.37-6.09,26.16,1.55,2.37,2.67,3.54,6.01,3.54,9.31Z"/>
      <path class="cls-2" d="m691.58,757.23l-.02,13.72c-2.31-5.31-2.83-10.64-3.03-11.85.99-.6,1.99-1.21,3.05-1.87Z"/>
      <path class="cls-2" d="m778.39,695.2c-3.18,5.26-5.17,9.35-6.19,11.49-8.58,18.18-11.83,36.2-12.5,51.84-2.29,1.53-4.83,3.22-7.59,5.04-16.3,10.77-22.78,13.83-28.09,15.67v-44.96c16.4-12.1,35.22-26.19,54.37-39.08Z"/>
      <path class="cls-2" d="m950.99,819.03l.12,46.68c-3.45,1.77-8.45,3.27-15.6,3.14-39.67-44.7-79.34-89.37-119.01-134.04-1.31-.87-3.49-2.05-6.34-2.39-3.89-.46-6.99.92-8.44,1.59-2.46,1.14-4.69,2.16-6.68,3.11,2.43-8.54,5.34-14.89,6.97-18.4,8.24-17.53,19.39-29.47,27.1-36.37,19.93.69,35.14,6.79,35.14,6.79,10.91,4.4,17.61,9.52,31.67,11.08,7.41.84,13.62.31,17.68-.25,8.6,16.06,17.21,32.12,25.8,48.19.01,0,.01.01.01.01h-65v30.63h81.4c7.18,13.43,14.38,26.87,21.56,40.3l-26.38-.07Z"/>
      <path class="cls-2" d="m981.41,826.62c-.12.14-.26.26-.39.41v-1.14c.13.24.25.49.39.73Z"/>
      <path class="cls-2" d="m820.38,806.22c0,2.87-2.16,5.2-4.83,5.2s-4.83-2.33-4.83-5.2,2.16-5.19,4.83-5.19,4.83,2.33,4.83,5.19Z"/>
      <path class="cls-2" d="m781.32,845.83c0,2.53-1.9,4.59-4.26,4.59s-4.26-2.06-4.26-4.59,1.9-4.58,4.26-4.58,4.26,2.05,4.26,4.58Z"/>
      <path class="cls-2" d="m662.68,735.7l.37-3.13c.48-3.98-2.37-7.59-6.35-8.05l-1.48-.19c-3.98-.46-7.59,2.38-8.05,6.36l-1.46,12.41c-.48,3.98,2.37,7.59,6.35,8.05l1.46.19c3.28.39,6.33-1.5,7.56-4.41,2.52,0,5.53.27,8.83,1.06,7.28,1.74,12.41,5.26,15.18,7.52,2.16-1.55,4.32-3.1,6.48-4.65v-6.19c-9.63-3-19.25-5.99-28.9-8.97Zm-8.31,7.52c-2.98,0-5.38-2.42-5.38-5.39s2.4-5.39,5.38-5.39,5.4,2.43,5.4,5.39-2.4,5.39-5.4,5.39Z"/>
      <path class="cls-2" d="m760.33,779.77c-3.81-1.75-7.64-3.51-11.47-5.26,3.42-2.59,6.83-3.22,10.25-5.8.17.07.36.13.53.2.12,3.85.35,7.47.69,10.86Z"/>
      <path class="cls-2" d="m926.71,869.37c-10.33-15.67-54.15-65.03-115.35-129.29-.7-.64-1.94-1.61-3.71-1.97-4.51-.99-8.07,2.75-8.31,3.03,11.18,11.43,22.35,22.85,33.51,34.29-3.59,3.66-7.2,7.3-10.81,10.96,3.7,3.47,7.39,6.94,11.08,10.42,3.56-3.56,7.12-7.14,10.69-10.69,10.93,12.98,21.84,25.95,32.76,38.92-5.89,5.04-11.78,10.06-17.66,15.1l-16.75-18.21,2.03-2.35c2.28-2.66,1.97-6.66-.69-8.96l-.88-.76c-2.66-2.28-6.65-1.98-8.94.68l-.95,1.11-3.84-4.17c.03-.33.05-.65.06-.97.14-7.41-5.75-13.52-13.14-13.64-1.63-.03-3.18.23-4.62.74h-.02l-3.05-2.64,2.67-3.1c2.63-3.06,2.28-7.67-.78-10.3l-4.3-3.71c-3.05-2.62-7.66-2.28-10.3.79l-3.66,4.25v.02c.17,1.28.36,2.57.58,3.88,1.09-.68,2.36-1.07,3.73-1.04,4.03.09,7.23,3.66,7.14,7.98-.08,4.31-3.33,7.71-7.31,7.7.59,1.9,1.26,3.74,1.94,5.51l1.89-2.2,2.8,2.42c-.2.9-.34,1.86-.35,2.83-.14,7.4,5.75,13.51,13.13,13.64,2.46.04,4.77-.57,6.78-1.7l2.7,2.95-1.9,2.21c-2.28,2.64-1.99,6.65.66,8.93l.9.77c2.66,2.28,6.66,1.97,8.94-.66l.83-.99,15.47,16.85c-3.11,2.67-6.23,5.32-9.36,8,2.13,1.46,4.14,2.75,5.98,3.86,2.67-2.28,5.32-4.58,7.98-6.86l15.72,17.11c2.01.59,3.99,1.14,5.81,1.61l-18.45-20.06c-.24-.24-.41-.53-.55-.82-.52-1.19-.27-2.6.73-3.52.62-.56,1.38-.84,2.13-.82.58.02,1.14.19,1.62.49.24.14.42.31.61.51l24.46,26.6h3.76l-26.64-28.98c5.48-4.7,10.96-9.39,16.44-14.09,12.89,14.3,25.79,28.61,38.69,42.92.03.05.08.1.13.15h10.73c-.84-1.68-1.77-3.25-2.76-4.73Zm-101.59-62.29c-.3,3.58-2.57,6.61-5.71,7.97-1.23.54-2.59.82-4.02.8-5.31-.1-9.53-4.48-9.43-9.77.1-5.31,4.48-9.51,9.77-9.43,5.31.1,9.51,4.48,9.43,9.77-.02.22-.04.44-.04.66Z"/>
      <path class="cls-2" d="m917.03,905.16c-3.92,3.27-8.84,5.31-13.53,5.91-9.65,1.21-17.02-3.9-19.93-6.35h-.02c-4.95-.59-10.86-1.56-17.41-3.2,3.47,3.35,6.96,6.72,10.43,10.08.48.81,5.64,9.77,1.23,19.52-3.24,7.2-10.33,11.25-17.94,12.32-9.75,1.36-13.29-4.05-19.27-9.87-12.66-12.48-25.4-25.05-38.08-37.55,3.35-2.89,6.68-5.76,10.02-8.64l29.8,28.83c-.12.66-.17,1.33-.17,2.02,0,6.22,5.02,11.24,11.25,11.24s11.25-5.02,11.25-11.24-5.04-11.26-11.25-11.26c-1.45,0-2.81.27-4.07.76l-24.28-23.5-.04-.02c-9.19-5.66-25.59-17.15-39.7-36.67-.77,3.9-4.19,6.82-8.29,6.82-4.7,0-8.48-3.79-8.48-8.47s3.78-8.48,8.48-8.48c.61,0,1.21.07,1.79.19h0c-.68-1.15-1.37-2.32-2.01-3.52-1.11.01-2.2.18-3.22.49l-2.7-2.25,2.8-3.4c.09-.1.17-.22.26-.34-2.42-4.88-4.61-10.13-6.54-15.73-3.35-.78-6.99.31-9.34,3.14l-3.49,4.23c-10.19-5.41-20.37-10.82-30.56-16.23v13.15c7.6,4.14,15.23,8.26,22.83,12.39l-2.33,2.81c-3.28,3.98-2.74,9.89,1.25,13.19l1.2.99c3.97,3.3,9.87,2.74,13.16-1.23l2.52-3.04,2.65,2.19c-.06.48-.1.95-.1,1.45,0,6.53,5.29,11.81,11.83,11.81,1.41,0,2.79-.26,4.07-.72l2.79,2.71-1.31,1.34c-2.64,2.73-2.57,7.08.15,9.72l.75.72c2.72,2.63,7.08,2.57,9.72-.16l1.31-1.36,14.33,13.86c-3.42,3.02-6.86,6.04-10.3,9.05-13.41-12.85-26.8-25.68-40.23-38.53-3.73,3.88-7.47,7.74-11.2,11.62,3.25,2.9,6.48,5.79,9.75,8.7.27-.61,1.07-2.18,2.64-2.64.87-.25,2.04-.19,3.97,1.06,4.66,3.01,9.7,10.36,11.07,12.4,1.83.02,7.17.34,12.14,4.22,3.59,2.81,5.31,6.18,6.07,7.92-.06.13-1.34,3.2.53,5.8,1.43,2.01,4.09,2.88,6.59,2.11,10.21,9.86,20.4,19.71,30.62,29.56,6.96,4.5,10.63,12.09,9.22,19-1.38,6.79-7.17,10.45-8.17,11.07-4.54,2.86-9.04,2.88-13.46,2.92-5.5.01-9.92-1.16-12.66-2.13-3.08,2.74-6.16,5.46-9.24,8.18,19.35,8.38,38.75,5.38,47.49-5.88,1.79-2.32,5.01-7.37,5.28-16,1.38.41,15.18,4.34,27.09-4.77,8.55-6.52,12.9-17.29,11.44-28.13,1.06.29,21.04,5.7,35.09-7.61.5-.47,2.88-2.81,5.26-6.55-3.59,0-7.2-.02-10.8-.02Zm-101.1-20.71c.14-.3.33-.58.58-.85.38-.39.85-.66,1.35-.82.29-.06.58-.11.87-.11.76,0,1.53.28,2.14.86l23.84,23.06c1.21,1.19,1.25,3.13.05,4.36-.59.63-1.39.94-2.21.94-.76,0-1.53-.29-2.13-.87l-23.84-23.06c-.97-.94-1.19-2.35-.65-3.51Zm-56.82-45.98c-4.03,0-7.29-3.51-7.29-7.85s3.26-7.83,7.29-7.83,7.28,3.51,7.28,7.83-3.27,7.85-7.28,7.85Z"/>
      <path class="cls-2" d="m691.56,786.74v12.78c-12.54-6.79-25.07-13.6-37.61-20.41l-.1.22c-.61,1.4-1.6,2.52-2.81,3.27l-4.32-7.3c.22.12.48.2.73.29,2.86.85,5.85-.78,6.71-3.63s-.77-5.85-3.63-6.71c-2.84-.87-5.85.75-6.71,3.61-.12.39-.19.8-.2,1.21l-1.84-3.11,2.35-5.45c1.6-3.69,5.87-5.38,9.55-3.8l1.36.61c3.68,1.58,5.36,5.84,3.78,9.53l-.53,1.21c11.1,5.89,22.18,11.78,33.27,17.67Z"/>
      <path class="cls-2" d="m744.17,863.09c-.17.77-.56,1.46-1.09,2.01-1.48,1.51-2.94,3.03-4.42,4.53-2.91-2.5-5.96-4.66-8.9-7.1-.8-.66-1.87-.89-2.86-.56-.85.29-1.82.65-2.88.99v-7.69l4.49-4.19c.75-.7,1.67-1.23,2.69-1.43,3.57-.71,7.32.37,9.96,2.96,2.79,2.74,3.91,6.74,3.01,10.48Z"/>
      <path class="cls-2" d="m691.53,835.26v11.44l-.97.32h-.02c-.19-.12-.32-.2-.43-.27-.66-.49-1.31-.99-1.96-1.46l-13.17-22.24c5.51,4.07,11.03,8.15,16.54,12.22Z"/>
      <path class="cls-2" d="m627.03,803.57c-3.25,1.97-7.51,1.11-9.7-2.06l-.85-1.21c-2.3-3.28-1.48-7.81,1.8-10.11l.65-.44,8.1,13.82Z"/>
      <path class="cls-2" d="m825.21,955.38c-1.72,2.72-5.77,7.28-9.5,6.35-1.43-.37-2.42-1.24-2.38-2.47.07-2.08,4.05-2.52,6.77-5.63,1.48-1.68,2.94-4.87,1.75-11.44.07-.24.58-2.04,1.77-2.28,1.38-.27,2.67,1.79,2.98,2.28,2.3,3.64,1.06,9.31-1.4,13.19Z"/>
      <path class="cls-2" d="m766.27,885.38c-.83-.27-5.22-1.6-9.77.78-3.52,1.86-5.07,4.88-5.53,5.89-.09-2.43-.49-5.77-2.03-9.31-1.91-4.41-4.58-6.89-3.97-7.57.54-.6,3.15.6,4.83,2.28,2.11,2.09,2.54,4.7,2.65,5.72.39-.37,3.05-2.76,6.94-2.37,4.48.46,6.65,4.22,6.86,4.58Z"/>
      <path class="cls-2" d="m644.72,833.8c-2.69-1.65-4.94-3.47-7.06-5.53-.07-.03-1.96-1.51-4.03-4.07-2.08-2.54-4.34-6.18-5.11-10.55-.15-.95-.61-3.57.53-4.31.26-.17.68-.31,1.16-.34l14.52,24.8Z"/>
      <path class="cls-2" d="m726.38,850.5h-2.37v-5.46c1.5,2.55,2.14,4.7,2.37,5.46Z"/>
      <path class="cls-2" d="m691.54,803.29v7.37c-4.73.32-10.59-.05-16.75-2.37-1.38-.51-7.56-2.94-13.77-8.8,0,0-.02,0-.02-.02l-7.93-13.43c1.04-.94,2.08-1.89,3.11-2.83,4.42,3.76,10.08,7.96,17.02,11.86,6.59,3.71,12.83,6.33,18.33,8.2Z"/>
      <path class="cls-2" d="m757.46,812.66c-1.28,1.58-2.55,3.17-3.81,4.75-1.51-2.11-5.97-5.67-10.82-8.42-5.91-3.39-9.97-3.81-12.66-3.85-2.06-1.34-4.1-2.69-6.14-4.03v-2.72c2.65,0,5.67.17,8.02.46,14.01,1.67,18.14,7.2,25.43,13.82Z"/>
      <path class="cls-2" d="m793.54,771.48c-.77.85-1.52,1.69-2.28,2.54-.14-1.67-.22-3.3-.26-4.92.85.8,1.69,1.58,2.54,2.38Z"/>
      <path class="cls-2" d="m691.59,726.79v8.76c-4.53,0-8.37.39-11.52,1.09-3.25-.61-6.82-.66-10.08-1.28.26-2.28.53-4.58.78-6.86,4.87-1.23,10.59-1.53,17.27-1.68,1.23-.03,2.4-.05,3.54-.03Z"/>
      <path class="cls-2" d="m608.51,771.98c-1.79,1.05-3.69,1.9-5.68,2.56-2.71.91-5.57,1.45-8.55,1.57-.39.02-.8.02-1.21.02-17,0-30.78-13.77-30.78-30.77,0-.27,0-.55.03-.84l-18.87-10.45-2.28-4.3,21.98,12.39,5.67-13.4-40.09-22.39-2.57-4.84,43.82,24.48.78-1.86c1.96-2.06,4.19-3.84,6.64-5.29l3.88,6.6c-6.86,3.76-11.51,11.05-11.51,19.42,0,12.2,9.91,22.11,22.13,22.11,2.31,0,4.56-.36,6.67-1.02v-.02c1.79-.56,3.49-1.34,5.04-2.35l4.9,8.38Z"/>
      <path class="cls-2" d="m523.82,700.22v3.41l-17.07-9.53c-1.32,1.58-3.3,2.57-5.51,2.57-3.97,0-7.18-3.22-7.18-7.2s3.21-7.18,7.18-7.18,7.2,3.21,7.2,7.18c0,.7-.1,1.38-.29,2.01l15.67,8.74Z"/>
      <path class="cls-2" d="m592.21,781.03l-15.44,36.52c-3.35,7.95-12.53,11.66-20.46,8.31l-1.85-.79v-9.2c1.19.8,2.64,1.26,4.17,1.26,4.18,0,7.55-3.39,7.55-7.58,0-1.6-.49-3.08-1.34-4.29l11.93-28.23c4.65,2.38,9.89,3.81,15.44,4Z"/>
      <path class="cls-2" d="m569.91,772.47l-12.52,29.65c-1.08.17-2.06.57-2.93,1.15v-41.93l.49.27,3.22-7.61c1.96,7.32,6.12,13.72,11.74,18.47Z"/>
      <path class="cls-2" d="m523.82,790.9v4.2l-36.96-20.27c-1.5,1.74-3.71,2.83-6.18,2.83-4.53,0-8.2-3.68-8.2-8.22s3.67-8.2,8.2-8.2,8.22,3.67,8.22,8.2c0,.75-.1,1.46-.29,2.14l35.21,19.32Z"/>
      <path class="cls-2" d="m519.35,770.02c.29-.87.44-1.79.44-2.76,0-4.92-3.98-8.9-8.88-8.9s-8.89,3.98-8.89,8.9,3.99,8.87,8.89,8.87c2.75,0,5.19-1.24,6.82-3.2l6.09,3.64v-3.8l-4.47-2.75Zm-8.44,3.59c-3.51,0-6.35-2.84-6.35-6.35s2.84-6.36,6.35-6.36,6.35,2.84,6.35,6.36-2.85,6.35-6.35,6.35Z"/>
      <path class="cls-2" d="m523.82,755.98v3.45l-21.58-12.18c-.66.44-1.46.73-2.31.8-2.79.24-5.24-1.81-5.48-4.6-.26-2.79,1.8-5.24,4.6-5.5,2.79-.23,5.24,1.83,5.47,4.62.09.88-.06,1.72-.39,2.45l19.69,10.96Z"/>
      <path class="cls-2" d="m492.65,728.25c.54-1.15.85-2.43.85-3.77,0-4.92-3.97-8.91-8.89-8.91s-8.88,3.99-8.88,8.91,3.98,8.86,8.88,8.86c2.73,0,5.18-1.22,6.81-3.16l32.4,17.44v-2.67l-31.17-16.7Zm-8.04,2.56c-3.5,0-6.34-2.85-6.34-6.33s2.84-6.37,6.34-6.37,6.37,2.84,6.37,6.37-2.86,6.33-6.37,6.33Z"/>
      <path class="cls-2" d="m571.71,709.14l-35.82-18.57c-1.16,1.23-2.79,1.97-4.59,1.97-3.51,0-6.35-2.84-6.35-6.35s2.84-6.36,6.35-6.36,6.35,2.84,6.35,6.36c0,.75-.14,1.48-.37,2.14l31.98,16.58,2.47,4.22Z"/>
      <path class="cls-2" d="m630.14,691.2l-11.42,27.03c-2.86-2.76-6.16-5.02-9.79-6.71l-3.34-5.65,5.87-13.87c3.57-.58,6.31-3.69,6.31-7.45,0-4.19-3.39-7.56-7.56-7.56s-7.57,3.37-7.57,7.56c0,1.6.49,3.1,1.36,4.32l-3.54,8.37-12.56-21.24,2.64,1.33c3.44-7.76,12.49-11.37,20.34-8.05l12.47,5.28c6.47,2.72,9.5,10.18,6.77,16.64Z"/>
      <path class="cls-2" d="m527.18,633.1l-1.7-.95c.17-.43.31-.85.39-1.29l-2.06-3.52h2.14c-.71-4.15-4.32-7.3-8.68-7.3-4.88,0-8.83,3.95-8.83,8.83s3.95,8.83,8.83,8.83c2.5,0,4.75-1.04,6.37-2.72l6.98,3.97-3.44-5.84Zm-9.9,2.11c-3.51,0-6.35-2.84-6.35-6.35s2.84-6.36,6.35-6.36,6.37,2.84,6.37,6.36-2.84,6.35-6.37,6.35Z"/>
      <path class="cls-2" d="m544.48,662.63l-13.51-7.45c-1.12,1-2.59,1.62-4.2,1.62-3.52,0-6.36-2.84-6.36-6.35s2.84-6.36,6.36-6.36,6.33,2.84,6.33,6.36c0,.71-.12,1.4-.34,2.04l8.48,4.6,3.25,5.55Z"/>
      <path class="cls-2" d="m559.26,687.85l-28.49-15.98c-1.29,1.8-3.42,3-5.82,3-3.98,0-7.2-3.23-7.2-7.2s3.22-7.2,7.2-7.2,7.18,3.23,7.18,7.2c0,.46-.03.92-.14,1.36l24.18,13.58,3.08,5.24Z"/>
    </g>
  </g>
</svg>